<?xml version="1.0" encoding="utf-8"?>
<svg viewBox="0 100 500 200" width="500" height="500" xmlns="http://www.w3.org/2000/svg">
  <g transform="matrix(0.10000000149011612, 0, 0, -0.10000000149011612, 90.17182159423825, 375.8797912597656)" fill="#000000" stroke="none">
    <path d="M1020 2534 c-97 -16 -107 -26 -321 -305 -259 -336 -447 -656 -546 -928 -43 -119 -76 -256 -68 -281 16 -49 278 -232 470 -328 348 -173 610 -224 1180 -225 392 -2 644 41 845 143 97 50 194 139 245 225 86 145 120 370 76 512 -56 186 -217 325 -415 359 -111 20 -194 7 -305 -47 -165 -81 -252 -205 -296 -422 -9 -43 -30 -32 -80 43 -116 174 -313 273 -535 269 -184 -3 -311 -54 -441 -176 -43 -41 -83 -72 -89 -68 -15 9 -12 171 4 257 8 40 29 114 46 163 37 104 153 344 181 374 18 19 31 21 165 21 l146 0 64 62 c61 58 64 63 64 108 0 58 -47 156 -94 198 -28 24 -46 31 -102 36 -123 12 -169 14 -194 10z m268 -61 c36 -27 78 -97 94 -157 l13 -49 -64 -58 -64 -59 -148 0 -148 0 -19 -27 c-35 -50 -120 -216 -157 -308 -52 -131 -82 -242 -95 -353 -14 -122 -5 -173 32 -186 25 -9 34 -3 109 68 126 121 264 176 439 175 223 0 431 -114 521 -284 39 -74 97 -74 112 1 34 164 93 269 194 346 83 63 158 90 263 96 103 5 179 -9 259 -49 116 -58 202 -156 242 -276 19 -58 21 -80 16 -182 -16 -357 -201 -543 -623 -631 -250 -52 -808 -54 -1129 -4 -310 48 -631 188 -916 401 -55 40 -102 80 -105 87 -8 20 29 166 69 276 61 169 165 370 294 570 168 259 440 607 486 622 12 4 84 6 160 4 119 -3 142 -6 165 -23z" style="stroke: rgb(0, 0, 0); stroke-width: 50px;"/>
    <path d="M 2274 1541 C 2181 1518 2084 1437 2035 1340 C 2013 1296 1980 1171 1980 1131 C 1980 1108 2013 1070 2033 1070 C 2065 1070 2083 1098 2091 1160 C 2117 1348 2229 1450 2410 1450 C 2481 1450 2500 1460 2500 1496 C 2500 1539 2476 1550 2387 1549 C 2342 1548 2291 1545 2274 1541 Z M 2223.306 1485.214 C 2226.306 1471.214 2457 1482 2383 1478 C 2314 1474 2208.179 1488.678 2168.179 1467.678 C 2072.179 1418.678 2076.554 1354.035 2058.554 1226.035 C 2052.554 1184.035 2109.589 1369.034 2089.589 1367.034 C 2066.589 1363.034 2034.571 1109 2041.571 1164 C 2067.571 1388 2224.728 1486.298 2433.728 1480.298 C 2488.728 1478.298 2220.306 1498.214 2223.306 1485.214 Z" style="stroke: rgb(0, 0, 0);"/>
    <path d="M 262 1194 C 222 1146 194 1057 208 1025 C 223 991 307 946 422 910 C 525 876 552 878 565 920 C 574 950 554 977 513 990 C 443 1012 310 1064 310 1071 C 310 1074 323 1097 340 1121 C 374 1171 377 1192 354 1214 C 328 1241 294 1233 262 1194 Z M 288.332 1005.55 C 291.332 1000.55 329 1160 315 1135 C 276 1070 207.442 1059.889 284.442 1020.889 C 320.442 1003.889 449 974 478 968 C 516 958 530 951 530 938 C 530 913 498 915 414 944 C 278 990 535.565 883.662 535.565 933.662 C 535.565 1004.662 263.332 1045.55 288.332 1005.55 Z" style="stroke: rgb(0, 0, 0);"/>
    <path d="M 765 1040 C 728 999 778 939 924 852 C 1185 695 1446 685 1692 823 C 1805 886 1836 931 1788 964 C 1758 985 1749 984 1704 954 C 1439 773 1141 794 880 1011 C 816 1064 793 1070 765 1040 Z M 783 997 C 741.333 894.556 1523.836 559.958 1736.472 907.624 C 1771.492 964.883 1659.808 893.904 1659.808 870.904 C 1659.808 843.904 1658 830 1556 793 C 1388 734 1154.14 800.849 975.14 890.849 C 889.14 933.849 792.657 1020.743 783 997 Z" style="stroke: rgb(0, 0, 0);"/>
  </g>
</svg>