<?xml version="1.0" encoding="utf-8"?>
<svg viewBox="-50 50 500 500" width="500" height="500" xmlns="http://www.w3.org/2000/svg">
  <g transform="matrix(0.10000000149011612, 0, 0, -0.10000000149011612, 90.17182159423828, 375.87979125976557)" fill="#000000" stroke="none"/>
  <g transform="matrix(0.10000000149011612, 0, 0, -0.10000000149011612, 105.06926727294922, 372.8619995117187)" fill="#000000" stroke="none">
    <g transform="matrix(1, 0, 0, 1, 143.96434, -407.769257)" fill="#000000" stroke="none">
      <g transform="matrix(1, 0, 0, 1, -733.285156, -343.236328)" fill="#000000" stroke="none">
        <path d="M944 2823 c-9 -10 -33 -51 -52 -91 -66 -138 -56 -235 42 -431 62&#10;-122 73 -169 86 -353 20 -301 29 -375 74 -605 86 -434 92 -503 52 -619 -33&#10;-98 -48 -124 -98 -170 -50 -46 -187 -116 -273 -139 -33 -9 -112 -18 -175 -22&#10;-101 -5 -117 -9 -137 -29 -17 -17 -23 -34 -23 -69 0 -92 92 -147 210 -125 32&#10;6 96 6 174 0 135 -10 192 -4 308 31 80 25 144 28 343 15 116 -8 121 -7 155 15&#10;86 59 103 174 46 313 -68 163 -84 273 -62 421 8 55 30 192 49 305 43 247 62&#10;431 53 514 -10 91 -69 355 -130 583 l-53 203 18 76 c10 42 19 102 21 133 3 50&#10;1 56 -17 56 -17 0 -21 -9 -27 -58 -11 -84 -56 -269 -89 -364 -34 -96 -35 -103&#10;-10 -103 19 0 55 69 67 130 4 16 9 30 13 30 7 0 111 -420 141 -570 34 -166 24&#10;-313 -46 -700 -60 -328 -57 -464 12 -631 50 -119 55 -145 43 -206 -12 -61 -46&#10;-100 -95 -109 -19 -3 -89 1 -157 9 -136 17 -189 13 -307 -24 -76 -24 -171 -29&#10;-345 -21 -38 2 -97 1 -130 -3 -36 -4 -71 -3 -87 4 -33 12 -62 64 -54 96 7 29&#10;31 35 135 35 47 0 114 7 150 16 85 20 254 102 308 149 49 42 104 147 129 245&#10;23 88 10 203 -61 571 -48 243 -58 316 -70 504 -8 121 -18 242 -21 269 -5 37 0&#10;70 22 142 20 70 25 97 16 106 -19 19 -40 -8 -53 -68 -7 -30 -15 -54 -18 -54&#10;-7 1 -38 66 -87 185 -27 65 -34 93 -34 150 0 75 26 153 69 214 34 47 14 82&#10;-25 44z"/>
        <path d="M 2105 2404 C 2034 2315 2029 2305 2045 2294 C 2055 2287 2068 2279 2074 2277 C 2080 2275 2046 2231 1998 2180 C 1950 2128 1912 2085 1914 2083 C 1916 2081 1951 2103 1991 2132 C 2032 2161 2093 2203 2128 2225 C 2188 2264 2203 2280 2178 2280 C 2134 2281 2142 2300 2216 2372 L 2293 2448 L 2244 2471 C 2217 2484 2192 2496 2189 2497 C 2185 2499 2148 2457 2105 2404 Z"/>
        <path d="M 2345 2125 C 2290 2095 2241 2069 2235 2067 C 2230 2065 2233 2051 2243 2036 L 2261 2010 L 2193 1979 C 2156 1962 2103 1939 2076 1927 C 2049 1916 2031 1905 2036 1903 C 2041 1902 2118 1915 2208 1933 C 2370 1965 2371 1966 2351 1984 C 2328 2005 2324 2020 2341 2020 C 2359 2020 2520 2083 2520 2089 C 2520 2092 2503 2114 2482 2137 L 2445 2179 L 2345 2125 Z"/>
        <path d="M 2273 1716 C 2279 1679 2279 1679 2247 1684 C 2176 1696 2027 1710 2023 1706 C 2021 1704 2049 1692 2087 1680 C 2124 1667 2195 1642 2243 1624 C 2292 1605 2334 1590 2337 1590 C 2339 1590 2339 1604 2335 1620 C 2331 1637 2331 1650 2333 1650 C 2343 1650 2506 1619 2524 1614 C 2539 1609 2541 1612 2537 1637 C 2534 1652 2529 1681 2525 1701 L 2519 1738 L 2403 1739 C 2339 1740 2282 1744 2277 1747 C 2271 1751 2269 1740 2273 1716 Z"/>
        <path d="M 1965 1459 C 1999 1424 2054 1365 2088 1328 C 2131 1282 2152 1265 2155 1275 C 2158 1283 2162 1297 2165 1305 C 2169 1317 2187 1308 2246 1265 C 2287 1234 2327 1207 2333 1204 C 2340 1202 2351 1221 2361 1255 L 2377 1310 L 2280 1365 C 2150 1438 2153 1437 2145 1401 L 2139 1372 L 2047 1431 C 1996 1464 1944 1498 1930 1507 C 1916 1516 1932 1495 1965 1459 Z"/>
        <path d="M1437 583 c-4 -3 -7 -17 -7 -30 0 -39 -27 -80 -60 -91 -31 -11 -40&#10;-39 -16 -48 38 -14 111 53 122 112 8 43 -17 79 -39 57z"/>
      </g>
    </g>
  </g>
</svg>