<?xml version="1.0" standalone="no"?>
<!DOCTYPE svg PUBLIC "-//W3C//DTD SVG 20010904//EN"
 "http://www.w3.org/TR/2001/REC-SVG-20010904/DTD/svg10.dtd">
<svg version="1.0" xmlns="http://www.w3.org/2000/svg"
 width="500" height="500" viewBox="0 0 300.000000 300.000000"
 preserveAspectRatio="xMidYMid meet">
<metadata>
Created by potrace 1.10, written by Peter Selinger 2001-2011
</metadata>
<g transform="translate(0.000000,300.000000) scale(0.100000,-0.100000)"
fill="#000000" stroke="none">
<path d="M887 2445 c-33 -35 -99 -92 -148 -125 -102 -70 -140 -112 -169 -189
-12 -31 -28 -69 -36 -84 -20 -41 -18 -49 27 -92 22 -22 65 -76 94 -120 29 -44
71 -97 93 -119 50 -48 122 -70 179 -54 57 15 57 16 1 58 -56 42 -66 44 -48 10
18 -34 -1 -44 -46 -25 -51 21 -86 55 -141 139 -25 38 -64 89 -86 113 l-41 44
13 47 c15 58 56 140 84 170 19 20 98 72 110 72 3 0 3 -10 0 -22 -7 -28 154
126 163 156 6 17 8 15 20 -12 7 -18 20 -32 28 -32 11 0 13 -8 9 -33 -4 -29 -1
-35 24 -47 15 -7 31 -14 35 -14 3 -1 10 -4 14 -8 12 -13 63 -9 94 7 27 14 30
20 30 64 0 55 -12 70 -104 125 -42 25 -72 36 -99 36 -36 0 -46 -6 -100 -65z
m184 -4 c71 -48 79 -57 79 -89 0 -31 -14 -42 -54 -42 -29 0 -66 27 -66 48 0
10 -16 34 -36 54 -19 21 -33 42 -29 48 12 19 61 10 106 -19z"/>
<path d="M1914 2474 c-80 -48 -102 -72 -104 -114 -3 -55 -2 -59 30 -75 40 -21
75 -19 127 7 42 21 45 25 40 55 -4 25 -2 33 9 33 8 0 21 14 28 32 12 27 14 29
20 12 3 -11 42 -55 86 -99 67 -67 80 -76 80 -56 l0 23 38 -23 c79 -47 125
-113 153 -221 l13 -47 -40 -43 c-22 -24 -60 -74 -86 -113 -55 -83 -91 -119
-139 -139 -42 -17 -71 -7 -50 18 30 36 2 33 -47 -4 l-54 -40 29 -11 c37 -14
93 -14 136 0 43 14 110 85 170 177 25 38 63 87 86 109 45 43 47 51 27 92 -8
15 -24 53 -36 84 -29 77 -67 119 -169 189 -49 33 -115 90 -148 125 -54 59 -64
65 -100 65 -27 0 -57 -11 -99 -36z m119 -10 c3 -4 -9 -26 -28 -49 -19 -23 -35
-49 -35 -57 0 -30 -59 -56 -99 -43 -30 9 -28 55 4 85 57 53 136 85 158 64z"/>
<path d="M863 2312 c-75 -69 -88 -88 -53 -79 26 7 25 -6 -4 -69 -15 -32 -43
-67 -75 -94 -28 -24 -51 -47 -51 -52 0 -14 97 40 125 69 14 15 32 50 41 78 23
70 49 119 85 159 27 31 32 57 11 56 -4 -1 -40 -31 -79 -68z"/>
<path d="M1445 2366 c-69 -22 -82 -33 -94 -80 -6 -25 -11 -56 -11 -70 0 -16
-6 -26 -14 -26 -25 0 -28 -17 -14 -76 11 -49 14 -53 18 -29 l5 29 26 -40 c14
-21 28 -47 32 -56 10 -29 -9 -21 -22 9 -10 22 -14 24 -22 12 -16 -26 -9 -45
36 -89 44 -43 57 -42 33 3 -6 12 -10 40 -10 63 2 32 -5 51 -29 84 -29 40 -31
46 -20 74 7 17 17 51 22 76 10 51 26 66 83 81 29 8 51 8 76 0 54 -16 69 -32
79 -81 5 -25 15 -59 22 -76 11 -28 9 -34 -20 -75 -26 -35 -32 -51 -28 -79 2
-21 -2 -46 -11 -62 -25 -44 -5 -45 38 -3 40 40 47 58 31 84 -8 12 -12 10 -22
-12 -13 -30 -32 -38 -22 -9 4 9 18 35 32 56 l26 40 5 -29 c4 -24 7 -20 18 29
14 59 11 76 -14 76 -8 0 -14 10 -14 26 0 14 -5 46 -11 71 -10 39 -17 48 -53
63 -59 26 -105 31 -151 16z"/>
<path d="M2045 2370 c-4 -6 7 -26 24 -46 36 -40 62 -89 85 -159 20 -62 52 -98
116 -130 60 -31 57 -14 -7 40 -27 22 -55 59 -69 89 -29 63 -30 76 -4 69 11 -3
20 -1 20 4 0 8 -144 143 -154 143 -3 0 -8 -5 -11 -10z"/>
<path d="M791 2014 c-30 -38 -26 -68 14 -113 24 -27 49 -42 82 -51 27 -7 56
-14 66 -17 9 -2 30 -15 46 -29 l29 -24 7 23 c6 17 9 12 15 -29 25 -168 144
-394 231 -439 57 -30 190 -10 205 30 8 19 -22 55 -45 55 -10 0 -8 5 8 13 60
31 42 89 -41 130 -74 38 -112 33 -47 -6 73 -43 85 -61 70 -102 -9 -25 -9 -40
-1 -55 15 -27 6 -38 -36 -46 -56 -10 -108 11 -152 61 -54 62 -118 193 -143
293 -11 46 -25 92 -32 102 -11 19 -77 46 -169 70 -69 18 -113 74 -82 105 9 8
25 15 36 15 20 0 81 -55 126 -114 12 -16 25 -27 28 -24 10 10 -27 83 -59 116
-64 67 -122 80 -156 36z"/>
<path d="M2105 2021 c-44 -27 -82 -71 -100 -115 -20 -48 -12 -58 17 -20 45 59
106 114 126 114 11 0 27 -7 35 -15 33 -32 -12 -87 -87 -105 -71 -18 -153 -53
-164 -70 -5 -9 -22 -61 -36 -115 -42 -157 -133 -305 -206 -335 -32 -13 -106
-8 -122 8 -6 6 -6 17 2 31 8 17 8 30 -1 56 -15 41 -3 59 70 102 31 19 41 28
29 31 -22 4 -112 -35 -134 -59 -23 -25 -21 -69 4 -89 l21 -17 -26 -20 c-51
-37 8 -83 107 -83 63 0 97 17 145 72 69 81 165 308 165 390 0 16 5 28 10 28 6
0 10 -7 10 -16 0 -12 7 -10 31 10 17 14 43 29 57 32 87 19 102 27 136 64 41
46 45 76 15 114 -25 31 -61 34 -104 7z"/>
<path d="M720 2010 c-19 -11 -30 -19 -23 -20 7 0 17 -17 22 -37 17 -61 46 -99
98 -129 26 -15 65 -42 85 -60 39 -35 117 -79 124 -71 8 8 -6 51 -24 73 -26 31
-62 51 -107 59 -106 18 -181 128 -128 187 22 25 0 24 -47 -2z"/>
<path d="M2233 2012 c53 -59 -22 -169 -128 -187 -45 -8 -81 -28 -107 -59 -18
-22 -32 -65 -24 -73 8 -8 86 37 125 72 21 19 42 35 47 35 39 0 134 106 134
149 0 11 6 26 14 34 13 12 10 16 -20 31 -46 21 -61 20 -41 -2z"/>
<path d="M1356 1888 l-7 -64 -50 -18 c-27 -10 -49 -21 -49 -25 0 -4 17 -13 38
-21 20 -8 40 -16 44 -18 4 -2 14 9 23 25 l15 28 -2 -39 c-2 -30 2 -42 22 -58
14 -11 44 -37 67 -59 l42 -39 28 26 c15 14 46 41 69 60 36 30 40 37 37 71 l-4
38 16 -28 c9 -16 19 -27 23 -25 4 2 24 10 45 18 20 8 37 17 37 21 0 4 -22 15
-49 25 l-50 18 -7 63 -6 64 -29 -27 c-23 -22 -26 -30 -15 -36 25 -14 29 -88 7
-134 -19 -39 -78 -94 -101 -94 -43 0 -139 130 -119 161 5 8 9 26 9 41 0 14 6
28 13 31 8 3 4 13 -14 32 l-26 27 -7 -64z"/>
<path d="M1014 1904 c3 -9 6 -23 6 -31 0 -12 3 -13 14 -4 11 9 22 9 49 -2 40
-17 52 -32 52 -67 0 -21 12 -31 82 -66 45 -22 98 -53 119 -69 l38 -29 -28 -9
c-26 -9 -24 -10 41 -33 81 -28 83 -28 83 -10 0 38 -178 162 -277 193 -29 9
-53 20 -53 25 0 9 44 1 73 -14 30 -15 19 6 -25 49 -65 64 -191 112 -174 67z"/>
<path d="M1900 1899 c-25 -11 -64 -39 -87 -62 -45 -43 -56 -64 -25 -49 28 15
72 23 72 13 0 -4 -20 -14 -44 -21 -96 -27 -286 -157 -286 -196 0 -18 2 -18 84
10 54 19 64 25 47 31 -12 3 -21 10 -21 15 0 13 75 62 151 98 64 30 86 53 73
73 -16 27 76 79 102 58 11 -9 14 -8 14 4 0 8 3 22 6 31 9 23 -30 21 -86 -5z"/>
<path d="M964 1655 l-31 -14 13 -98 c11 -81 22 -114 59 -188 24 -49 59 -112
77 -140 l32 -50 7 58 c4 38 17 74 37 106 l30 49 -20 28 c-27 39 -108 205 -108
220 0 18 -29 44 -48 43 -9 0 -31 -7 -48 -14z m116 -152 l62 -128 -23 -43 c-12
-23 -27 -41 -33 -39 -19 6 -84 139 -95 196 -12 61 -14 124 -4 134 19 19 36 -4
93 -120z"/>
<path d="M1956 1654 c-9 -8 -16 -21 -16 -28 0 -15 -81 -181 -108 -220 l-20
-28 30 -49 c20 -32 33 -68 37 -106 l7 -58 32 50 c18 28 53 91 77 140 37 74 48
107 59 188 l13 98 -35 14 c-44 19 -57 19 -76 -1z m57 -99 c-1 -42 -10 -92 -22
-123 -23 -62 -68 -142 -80 -142 -5 0 -18 19 -31 43 l-22 42 63 128 c45 92 67
127 78 125 13 -3 16 -17 14 -73z"/>
<path d="M1175 1306 c-46 -79 -43 -188 10 -316 12 -30 25 -81 29 -113 3 -32
13 -74 21 -93 8 -19 10 -34 6 -34 -8 0 -20 22 -38 70 l-10 25 -17 -33 c-15
-29 -15 -35 -3 -45 8 -7 36 -43 62 -80 97 -139 176 -197 265 -197 91 0 167 56
266 198 26 37 53 72 61 79 12 10 12 16 -3 45 l-17 33 -10 -25 c-18 -48 -30
-70 -38 -70 -4 0 -2 15 6 34 8 19 18 61 21 93 4 32 17 83 29 113 53 128 56
237 10 316 -14 24 -28 44 -31 44 -2 0 -23 -12 -45 -27 -50 -33 -126 -41 -187
-20 -51 18 -58 10 -49 -49 8 -49 18 -58 88 -84 72 -26 133 -82 148 -137 26
-91 6 -213 -55 -340 -85 -178 -206 -222 -314 -114 -104 104 -166 321 -129 454
15 55 76 111 148 137 70 26 80 35 88 84 9 59 2 67 -49 49 -61 -21 -137 -13
-187 20 -22 15 -43 27 -45 27 -3 0 -17 -20 -31 -44z m87 -27 c32 -16 59 -21
115 -21 40 1 73 -2 73 -7 0 -14 -34 -39 -81 -59 -58 -25 -115 -74 -138 -120
l-18 -36 -13 25 c-8 13 -16 60 -18 105 -4 65 -1 86 13 108 10 14 19 26 22 26
2 0 23 -10 45 -21z m543 -9 c25 -49 14 -220 -15 -220 -5 0 -16 13 -24 29 -21
39 -80 89 -135 113 -48 20 -81 45 -81 60 0 4 35 8 78 8 56 1 86 6 112 20 46
25 47 25 65 -10z"/>
<path d="M1390 1143 c-42 -18 -87 -58 -107 -97 -13 -25 -13 -30 0 -44 13 -12
23 -13 64 -3 26 7 67 21 90 31 38 17 42 22 48 63 4 25 4 50 0 56 -9 15 -53 12
-95 -6z m60 -43 c0 -11 -11 -27 -24 -35 -29 -19 -86 -36 -98 -29 -13 8 18 47
55 66 43 23 67 23 67 -2z"/>
<path d="M1517 1153 c-10 -9 -8 -58 2 -86 10 -26 79 -58 152 -72 72 -13 71 48
-2 109 -52 44 -132 70 -152 49z m103 -53 c40 -20 67 -54 52 -64 -14 -8 -78 12
-103 33 -14 11 -20 24 -16 34 8 22 19 21 67 -3z"/>
<path d="M1355 979 c-94 -25 -120 -66 -76 -120 16 -20 30 -24 93 -27 99 -5
110 5 106 97 -3 63 -4 66 -28 67 -14 1 -56 -7 -95 -17z m89 -63 c-2 -44 -15
-56 -65 -56 -48 0 -89 31 -73 57 11 18 84 43 119 40 16 -2 20 -9 19 -41z"/>
<path d="M1527 993 c-4 -3 -7 -35 -7 -69 0 -87 12 -97 108 -92 63 3 77 7 93
27 22 27 24 60 7 84 -7 9 -49 26 -92 37 -86 22 -99 23 -109 13z m107 -46 c27
-7 54 -21 60 -31 26 -42 -90 -78 -128 -40 -16 15 -22 65 -9 77 9 10 20 9 77
-6z"/>
<path d="M1290 799 c0 -8 17 -51 39 -95 40 -83 124 -175 143 -156 12 12 16
197 5 234 -7 26 -9 27 -97 30 -76 3 -90 1 -90 -13z m158 -106 c2 -59 0 -73
-12 -73 -31 0 -104 128 -85 147 5 5 28 7 52 4 l42 -6 3 -72z"/>
<path d="M1618 812 c-79 -3 -88 -5 -95 -25 -10 -30 -7 -227 5 -239 5 -5 29 9
58 36 36 32 61 67 88 125 21 44 36 86 34 93 -2 10 -26 12 -90 10z m42 -52 c0
-37 -84 -155 -102 -144 -9 6 -11 138 -1 147 11 11 103 8 103 -3z"/>
</g>
</svg>
