<?xml version="1.0" standalone="no"?>
<!DOCTYPE svg PUBLIC "-//W3C//DTD SVG 20010904//EN"
 "http://www.w3.org/TR/2001/REC-SVG-20010904/DTD/svg10.dtd">
<svg version="1.0" xmlns="http://www.w3.org/2000/svg"
 width="500" height="500" viewBox="0 0 300.000000 240.000000"
 preserveAspectRatio="xMidYMid meet">
<metadata>
Created by potrace 1.10, written by Peter Selinger 2001-2011
</metadata>
<g transform="translate(0.000000,240.000000) scale(0.100000,-0.100000)"
fill="#000000" stroke="none">
<path d="M735 2036 c-39 -18 -87 -47 -107 -64 -43 -38 -233 -312 -277 -399
-37 -74 -64 -182 -55 -218 10 -39 79 -93 220 -172 162 -90 186 -99 284 -114
100 -16 112 -7 70 46 -35 44 -38 70 -10 85 11 6 20 15 20 20 0 14 -28 12 -32
-2 -3 -9 -24 -6 -80 10 -99 29 -220 54 -226 47 -17 -17 102 -59 216 -77 65
-10 72 -14 72 -34 0 -12 12 -37 26 -54 15 -17 24 -33 22 -35 -2 -3 -42 2 -88
10 -88 16 -163 49 -336 151 -107 63 -144 101 -144 148 0 42 26 128 57 191 32
62 214 328 257 373 48 52 161 102 228 102 53 0 57 -2 82 -38 27 -40 33 -62 16
-62 -5 0 -10 6 -10 14 0 7 -7 19 -15 26 -13 10 -15 9 -15 -9 0 -15 -6 -21 -21
-21 -11 0 -17 -4 -14 -10 3 -5 17 -10 30 -10 36 0 55 -10 55 -30 0 -14 -13
-19 -62 -25 -88 -11 -152 -9 -156 4 -5 14 -32 15 -32 1 0 -5 4 -10 10 -10 5 0
-4 -21 -20 -47 -16 -25 -36 -70 -45 -100 -25 -85 -57 -253 -51 -268 8 -22 61
-28 96 -10 28 14 41 15 101 5 38 -7 69 -15 69 -19 0 -4 -25 -15 -56 -26 -53
-18 -72 -31 -61 -42 8 -8 134 36 146 51 17 20 125 40 182 33 61 -8 133 -45
137 -72 4 -28 24 -65 34 -65 4 0 35 24 68 53 33 28 78 67 100 86 22 18 40 37
40 42 0 18 -22 9 -51 -21 l-30 -30 6 68 c4 37 10 99 14 137 l7 70 27 -52 c32
-62 65 -82 127 -79 51 3 56 -1 89 -68 15 -29 43 -61 70 -81 25 -19 53 -40 61
-47 9 -8 31 -23 50 -35 19 -12 41 -31 48 -42 16 -27 46 -28 37 -2 -3 11 1 35
9 55 12 29 21 36 53 42 57 10 75 23 32 24 -39 0 -92 -22 -126 -53 -22 -19 -23
-19 -50 -2 l-28 19 60 19 c74 24 219 29 258 8 29 -15 93 -7 67 9 -11 7 -8 11
14 19 37 15 176 10 202 -6 25 -16 93 -22 94 -9 1 6 -20 15 -45 22 -26 6 -53
18 -60 25 -8 8 -25 48 -38 89 -15 48 -40 98 -70 139 -26 35 -46 66 -43 68 2 2
28 -9 58 -26 30 -17 60 -31 67 -31 27 0 -6 24 -77 57 -57 27 -82 33 -106 28
-54 -11 -160 -13 -173 -3 -21 17 -15 25 22 32 37 7 40 12 26 35 -6 9 -6 22 0
32 6 11 5 20 -1 24 -5 3 -10 -1 -10 -10 0 -9 -5 -13 -11 -10 -6 4 -16 -1 -23
-11 -16 -21 -1 -44 24 -37 8 2 4 -2 -9 -9 -21 -11 -26 -9 -42 11 -21 26 -18
36 33 94 l33 39 100 -37 c55 -21 123 -54 150 -75 94 -70 204 -181 246 -248 23
-37 53 -80 66 -96 32 -39 73 -120 73 -146 0 -24 -81 -108 -153 -158 l-47 -33
10 27 c13 33 -8 61 -36 50 -15 -6 -16 -8 0 -24 23 -26 21 -34 -18 -71 -43 -42
-166 -80 -229 -72 -10 1 37 94 55 109 11 8 23 8 51 0 20 -6 40 -8 44 -4 11 11
-18 26 -49 26 -28 0 -39 22 -18 35 6 3 10 13 10 21 0 11 -8 9 -33 -10 -18 -14
-60 -38 -92 -53 -55 -25 -69 -27 -162 -25 -109 3 -133 -8 -64 -29 30 -9 65 -9
147 0 59 6 110 9 113 6 10 -10 -32 -75 -63 -98 -27 -21 -38 -23 -86 -18 -66 8
-151 47 -158 73 -6 26 -19 22 -27 -9 -3 -15 -16 -40 -27 -56 -21 -29 -22 -29
-95 -25 -40 3 -73 2 -73 -2 0 -4 19 -15 43 -26 38 -17 44 -25 63 -83 22 -71
46 -95 99 -105 69 -13 125 43 125 125 0 31 5 37 36 53 20 9 39 15 42 12 6 -7
-33 -116 -63 -177 -34 -67 -180 -247 -196 -242 -10 3 -63 -56 -56 -63 4 -4 13
-1 22 6 11 9 15 9 15 1 0 -15 -22 -104 -26 -110 -2 -2 -13 8 -25 22 -26 34
-59 34 -89 2 -31 -33 -19 -43 26 -21 44 20 56 13 78 -50 l15 -44 -108 0 c-60
0 -124 -3 -142 -6 l-34 -6 25 17 c36 26 130 117 141 138 8 14 2 26 -26 59 -37
44 -62 106 -52 131 3 9 31 34 62 57 34 25 55 48 53 57 -5 29 -22 24 -78 -22
-106 -87 -125 -50 -88 171 12 73 18 137 15 141 -22 22 -47 -77 -47 -186 0 -73
-20 -117 -65 -147 -21 -14 -31 -15 -51 -5 -34 15 -43 13 -20 -4 33 -25 66 -18
101 20 l33 35 7 -41 c8 -47 25 -57 63 -38 15 7 31 15 37 18 5 2 -3 -10 -18
-28 -21 -25 -25 -39 -21 -59 10 -41 39 -95 63 -116 12 -11 21 -25 21 -31 0
-14 -135 -145 -149 -145 -13 0 -18 83 -11 208 3 61 2 112 -2 112 -5 0 -8 10
-8 21 0 20 -4 21 -41 15 -32 -5 -46 -2 -70 15 -16 11 -27 24 -24 29 3 5 1 11
-5 15 -6 4 -8 11 -5 16 4 5 -3 9 -14 9 -44 0 -14 -45 58 -88 26 -16 39 -18 53
-11 28 15 38 2 38 -51 0 -41 -36 -279 -43 -286 -1 -1 -23 -5 -49 -9 -43 -7
-46 -6 -42 12 7 25 -55 93 -84 93 -12 0 -38 -15 -58 -32 -36 -31 -37 -32 -29
-8 4 14 19 34 34 44 49 37 186 175 179 182 -9 9 -49 -23 -140 -113 -52 -51
-79 -72 -82 -62 -3 8 -12 54 -21 103 -20 109 -20 109 -110 221 -83 104 -110
143 -102 151 3 3 16 -9 28 -26 31 -41 74 -66 129 -75 25 -4 58 -14 74 -22 38
-20 73 -9 96 30 21 33 27 77 11 77 -5 0 -19 -13 -31 -30 -13 -18 -36 -33 -59
-40 -37 -10 -43 -8 -126 45 -49 30 -92 55 -97 55 -8 0 -38 60 -38 75 0 3 18
-7 41 -22 50 -33 120 -34 183 -4 45 22 66 26 66 13 0 -13 88 -102 101 -102 7
0 9 13 4 40 -6 37 -5 40 22 46 64 14 94 27 151 65 l59 40 31 -18 c24 -14 34
-15 43 -6 9 9 3 16 -27 30 -37 17 -39 21 -46 78 -5 49 -4 62 10 73 22 16 106
15 166 -3 55 -17 122 -20 131 -6 9 16 -13 23 -98 28 l-82 6 -45 48 c-25 27
-48 49 -53 49 -4 0 -7 -16 -7 -35 0 -33 -7 -40 -37 -36 -17 2 -88 -48 -88 -62
0 -7 17 -16 39 -22 l38 -9 -5 -50 c-3 -38 -11 -55 -31 -73 -54 -46 -248 -82
-274 -50 -7 8 -20 50 -28 94 -9 45 -23 84 -33 91 -25 21 -101 10 -146 -21 -23
-16 -55 -28 -75 -28 -19 -1 -48 -5 -65 -9 -25 -6 -21 -8 26 -9 44 -1 68 5 110
28 69 36 101 43 133 31 20 -7 26 -17 26 -38 0 -16 7 -53 16 -82 15 -51 15 -55
-3 -68 -62 -48 -137 -54 -202 -17 -57 33 -65 32 -57 -7 4 -18 7 -47 7 -65 -1
-32 34 -86 127 -198 56 -66 68 -94 86 -199 8 -48 20 -94 26 -101 7 -8 5 -26
-7 -57 -26 -71 -16 -82 65 -73 37 4 102 10 144 13 42 4 79 10 83 14 4 3 13 39
20 80 l13 73 1 -85 1 -85 160 0 c149 -1 160 1 160 18 0 10 -4 27 -10 37 -7 12
-5 27 4 46 8 16 20 56 27 88 9 39 23 69 42 90 119 127 201 260 230 374 10 42
21 58 50 79 20 14 37 31 37 36 0 5 7 4 15 -3 30 -25 183 13 236 57 18 15 38
28 45 29 36 6 187 131 209 175 22 41 5 80 -98 231 -86 124 -171 214 -282 299
-49 37 -218 109 -256 109 -18 0 -99 -91 -99 -112 0 -5 7 -24 16 -41 9 -18 20
-39 24 -47 6 -12 25 -15 86 -14 44 1 91 5 106 9 24 6 29 4 38 -20 5 -14 30
-54 54 -88 35 -51 86 -175 86 -212 0 -4 -26 -5 -58 -1 -42 5 -70 2 -102 -10
-31 -11 -83 -17 -170 -18 -102 -1 -137 -6 -189 -24 l-63 -23 -53 40 c-35 26
-61 57 -78 90 l-25 51 19 50 c10 28 19 73 19 101 0 27 7 64 16 81 16 30 15 36
-6 100 -24 72 -40 88 -88 88 -16 0 -37 9 -47 20 -10 11 -26 20 -37 20 -10 0
-18 5 -18 11 0 7 -16 9 -47 5 -64 -7 -162 -23 -196 -31 -28 -8 -76 -61 -99
-109 -11 -26 -10 -30 13 -50 21 -18 23 -26 16 -53 -7 -22 -5 -44 6 -77 14 -42
14 -50 0 -83 -14 -36 -14 -38 6 -51 13 -9 21 -25 21 -43 0 -35 36 -133 54
-148 9 -8 26 -7 61 3 l48 15 -28 -29 c-22 -23 -32 -27 -46 -20 -10 6 -29 10
-43 10 -14 0 -28 5 -31 10 -10 17 -80 49 -131 60 -38 9 -63 8 -120 -5 -67 -15
-77 -15 -130 1 -55 16 -77 16 -188 -2 l-39 -7 6 59 c10 95 55 255 85 303 l27
44 70 3 c39 2 93 7 120 11 l50 8 -3 49 c-3 48 -27 96 -60 124 -28 22 -102 13
-177 -22z m721 15 c-28 -11 -4 -23 29 -15 19 5 32 1 49 -15 13 -12 42 -25 66
-29 42 -7 69 -32 35 -32 -22 0 -14 -23 13 -35 24 -10 39 -62 28 -92 -6 -14 -9
-15 -16 -4 -5 8 -17 12 -30 8 -32 -8 -50 2 -50 29 0 26 -18 31 -52 13 -18 -10
-19 -8 -12 13 10 33 10 43 -1 46 -5 1 -11 -9 -13 -24 l-4 -26 -15 21 c-12 18
-18 20 -29 10 -11 -9 -24 -9 -54 0 -35 10 -43 9 -67 -8 -16 -11 -55 -25 -88
-30 -49 -7 -63 -6 -77 6 -17 15 -17 18 4 55 12 21 31 46 42 56 20 16 20 16 7
0 -11 -15 -11 -18 2 -18 9 0 18 9 22 19 7 23 53 41 104 41 20 0 43 5 51 10 8
5 29 9 45 9 24 0 26 -2 11 -8z m-47 -151 c23 -6 39 -6 47 1 9 7 14 5 18 -9 8
-23 43 -35 65 -22 12 6 18 1 28 -21 10 -24 18 -29 48 -29 l35 0 0 -57 c0 -32
-8 -80 -17 -106 l-17 -48 -62 4 c-75 6 -79 8 -104 56 -23 46 -68 101 -82 101
-6 0 -28 -19 -49 -42 l-39 -43 0 35 c0 78 -11 110 -44 128 l-31 16 58 7 c33 4
66 14 75 23 19 19 26 19 71 6z m-147 -150 c3 -39 9 -74 13 -78 4 -4 20 9 37
28 28 34 29 34 23 8 -9 -36 1 -51 26 -38 21 12 25 35 7 46 -8 5 -9 2 -5 -9 6
-15 -9 -34 -19 -24 -8 8 19 58 30 54 6 -2 12 -19 14 -39 2 -26 -4 -43 -23 -66
-24 -28 -24 -31 -7 -36 17 -6 18 -12 10 -74 -5 -37 -13 -71 -18 -76 -5 -5 -26
-9 -47 -10 -37 -1 -38 0 -60 59 -12 33 -22 72 -22 87 -1 15 -8 31 -17 36 -14
8 -14 14 -4 49 10 31 10 49 1 74 -12 35 -15 92 -5 102 4 3 19 0 34 -8 25 -13
28 -20 32 -85z m645 -390 c-10 -37 -12 -38 -28 -24 -17 15 -16 17 9 40 15 13
27 24 28 24 1 0 -4 -18 -9 -40z m-618 13 c3 -2 -3 -11 -12 -20 -13 -13 -19
-14 -31 -3 -27 21 -20 41 12 34 15 -4 29 -9 31 -11z m319 -73 c-36 -4 -55 -12
-65 -26 -10 -15 -21 -19 -43 -16 -17 2 -30 7 -30 11 0 10 64 45 78 42 22 -4
42 19 42 48 1 26 1 25 35 -14 l34 -40 -51 -5z m648 -70 c-14 -18 -27 -26 -31
-20 -4 6 -14 9 -23 6 -10 -2 -33 -7 -52 -11 -27 -5 -22 -1 23 19 32 13 68 31
80 39 31 21 33 2 3 -33z m-1571 6 c50 -13 84 -25 77 -25 -15 -1 -175 38 -181
45 -8 8 14 3 104 -20z m855 -113 c-20 -15 -24 -9 -11 15 6 12 12 36 13 54 1
28 2 26 7 -12 4 -34 2 -48 -9 -57z m423 -27 c32 -15 76 -30 98 -33 l40 -6 -40
-18 c-38 -17 -41 -17 -77 2 -46 23 -74 24 -74 4 0 -17 50 -45 81 -45 20 0 21
-4 15 -42 -10 -63 -35 -92 -82 -96 -55 -3 -86 16 -102 63 -27 79 -42 106 -64
115 -17 6 -9 7 24 3 44 -5 50 -3 78 27 16 18 30 39 30 47 0 8 3 13 8 11 4 -2
33 -17 65 -32z m-509 -30 c-12 -8 -43 -20 -70 -27 -64 -15 -77 -27 -72 -61 6
-39 -4 -35 -45 16 l-36 43 77 6 c42 2 93 12 112 20 45 20 60 21 34 3z m522
-32 c13 -3 24 -10 24 -15 0 -12 -5 -11 -45 5 -34 15 -51 34 -19 22 9 -3 27 -9
40 -12z m-934 -120 c32 -20 57 -38 54 -41 -10 -11 -74 19 -101 47 -38 39 -25
38 47 -6z m226 -25 c-14 -39 -50 -64 -75 -50 -16 9 -14 11 14 21 17 6 39 22
48 36 21 33 26 30 13 -7z m407 -115 c-43 -34 -56 -29 -17 7 19 17 37 27 40 24
4 -4 -6 -18 -23 -31z m-325 -167 c0 -1 -28 -26 -62 -56 l-63 -53 59 56 c55 52
66 61 66 53z m-33 -184 c33 -35 34 -37 17 -51 -14 -10 -36 -12 -83 -8 -35 3
-66 8 -69 11 -8 8 70 85 86 85 8 0 30 -17 49 -37z m-100 -81 c-33 -4 -57 3
-57 16 0 5 19 4 42 -2 39 -10 40 -11 15 -14z"/>
</g>
</svg>
