<?xml version="1.0" encoding="utf-8"?>
<svg viewBox="0 0 500 500" width="500" height="500" xmlns="http://www.w3.org/2000/svg">
  <g transform="matrix(0.06794600188732147, 0, 0, -0.057937003672122955, 125.55874633789064, 395.93670654296875)" fill="#000000" stroke="none">
    <path d="M1284 5157 c-28 -14 -60 -37 -72 -53 -12 -16 -39 -46 -59 -66 -38&#10;-38 -38 -38 -38 -122 0 -71 3 -89 22 -114 14 -19 18 -33 12 -43 -14 -23 -11&#10;-58 13 -121 12 -35 31 -66 45 -75 20 -13 23 -23 23 -80 0 -68 -12 -103 -35&#10;-103 -7 0 -44 -20 -80 -45 l-67 -46 -51 26 c-90 44 -213 27 -278 -39 -31 -33&#10;-33 -33 -65 -20 -73 30 -213 1 -252 -53 l-19 -26 -7 120 c-8 140 7 237 50 311&#10;15 26 32 57 38 69 12 24 40 31 52 12 8 -13 104 -3 149 15 40 17 56 38 57 75 1&#10;17 7 36 15 42 19 17 16 33 -18 99 -36 69 -50 76 -137 65 -126 -15 -215 -97&#10;-268 -248 -18 -51 -66 -123 -138 -207 -31 -36 -72 -95 -91 -132 -39 -74 -69&#10;-195 -60 -239 4 -15 -1 -50 -9 -79 -26 -88 -8 -109 141 -162 67 -23 109 -45&#10;143 -74 33 -28 67 -46 102 -55 77 -19 201 -15 273 9 33 11 63 19 66 16 4 -2&#10;13 -28 19 -56 25 -105 82 -192 175 -266 39 -32 70 -67 84 -94 20 -42 20 -47 6&#10;-99 -7 -30 -25 -87 -39 -128 -15 -42 -26 -97 -26 -126 0 -39 -5 -56 -20 -70&#10;-32 -29 -98 -147 -109 -195 -36 -162 -43 -204 -42 -287 0 -51 3 -98 7 -104 4&#10;-7 10 -93 14 -193 6 -147 12 -193 30 -246 23 -69 94 -201 142 -262 21 -28 32&#10;-59 43 -120 8 -46 27 -122 43 -169 27 -80 28 -88 14 -125 -8 -21 -16 -82 -19&#10;-134 -5 -85 -2 -102 21 -164 15 -38 56 -122 92 -187 91 -163 107 -208 108&#10;-304 1 -97 4 -92 -143 -243 -61 -63 -111 -117 -111 -122 0 -4 19 -27 42 -50&#10;40 -40 44 -41 88 -36 25 3 61 7 80 8 24 2 53 18 92 50 54 44 78 55 172 75 24&#10;5 47 18 59 35 l19 26 -25 69 c-47 123 -98 317 -104 389 -4 52 -1 84 12 123 45&#10;136 37 259 -30 448 l-45 128 11 83 c9 64 8 102 -2 161 -11 68 -10 93 6 190 10&#10;61 21 111 25 111 12 0 86 -119 113 -180 13 -30 36 -85 51 -121 15 -37 46 -90&#10;69 -118 88 -106 110 -137 137 -191 31 -62 53 -85 70 -75 7 4 4 17 -9 38 -38&#10;63 -63 118 -57 124 10 11 69 -65 86 -110 20 -53 60 -69 95 -37 27 25 37 76 28&#10;147 -4 38 -10 53 -21 53 -12 0 -13 -9 -8 -49 7 -50 -1 -61 -40 -61 -25 0 -29&#10;49 -6 73 25 27 38 72 23 81 -6 4 -18 -2 -28 -14 -33 -38 -73 -19 -73 35 0 19&#10;8 39 20 50 21 19 18 37 -6 28 -12 -4 -14 2 -8 38 8 58 11 69 24 69 5 0 10 -12&#10;10 -26 0 -36 16 -61 51 -79 30 -16 30 -16 42 14 16 43 24 39 30 -16 7 -66 53&#10;-218 83 -275 52 -99 82 -186 84 -245 4 -91 3 -98 -15 -83 -8 7 -15 21 -15 31&#10;0 11 -4 19 -10 19 -13 0 -13 -5 5 -114 8 -50 17 -157 21 -238 3 -82 10 -148&#10;15 -148 5 0 9 14 9 32 0 50 9 28 20 -51 12 -85 29 -122 76 -164 20 -16 44 -48&#10;56 -70 13 -27 22 -36 28 -28 9 16 115 -68 115 -91 0 -9 4 -20 8 -24 4 -4 7&#10;-14 7 -23 0 -10 -12 -4 -35 19 -38 37 -47 29 -15 -13 11 -14 20 -33 20 -42 0&#10;-15 -3 -15 -30 2 -17 10 -33 28 -36 40 -7 25 -24 31 -24 9 0 -28 13 -47 41&#10;-62 34 -17 37 -37 7 -58 -23 -16 -44 -10 -83 24 -11 10 -39 23 -62 29 -33 9&#10;-47 19 -59 44 -8 18 -42 57 -74 87 l-58 56 3 124 c3 87 -4 191 -21 343 -13&#10;120 -24 222 -24 227 0 6 -5 10 -11 10 -8 0 -9 -28 -5 -92 4 -63 3 -86 -3 -71&#10;-16 37 -41 225 -41 311 0 45 -4 83 -9 86 -13 9 -19 -14 -13 -52 3 -20 0 -32&#10;-7 -32 -6 0 -11 11 -11 25 0 14 -5 25 -10 25 -6 0 -9 -37 -8 -97 3 -82 0 -98&#10;-12 -98 -19 0 -38 71 -39 147 -1 47 2 56 14 52 18 -7 21 26 3 44 -33 33 -58&#10;-17 -58 -119 0 -98 38 -198 109 -283 43 -52 81 -143 101 -241 10 -48 10 -73 0&#10;-127 -11 -54 -11 -70 -1 -82 9 -10 11 -29 6 -56 -7 -43 -7 -43 96 -136 19 -17&#10;43 -46 54 -64 13 -22 34 -40 60 -50 23 -8 55 -25 72 -37 17 -13 45 -23 61 -23&#10;34 0 55 16 106 78 l35 43 -29 56 c-20 37 -45 67 -76 89 -26 19 -75 64 -109&#10;102 -57 64 -63 74 -79 148 -27 125 -32 209 -23 349 12 195 7 244 -42 360 -23&#10;54 -50 109 -61 120 -11 11 -31 65 -45 119 -14 55 -28 103 -31 108 -3 5 -7 109&#10;-8 231 l-3 222 -42 163 c-44 172 -54 200 -84 245 -12 18 -23 58 -28 107 -11&#10;100 -52 272 -79 332 -19 44 -20 50 -6 77 9 16 27 72 40 125 29 110 41 136 147&#10;311 65 108 83 147 105 230 16 62 36 111 51 129 33 40 58 91 78 161 27 97 36&#10;105 104 105 127 0 226 34 331 114 36 27 111 71 167 97 56 27 107 57 112 68 17&#10;31 13 91 -8 125 -10 17 -24 58 -31 91 -25 124 -46 160 -196 335 -31 36 -73 95&#10;-94 131 -21 36 -53 79 -70 96 -41 40 -141 77 -189 70 -20 -2 -47 -2 -61 2 -36&#10;10 -131 -7 -153 -27 -26 -23 -57 -86 -57 -115 0 -15 10 -31 24 -40 13 -9 26&#10;-29 29 -46 5 -25 13 -32 47 -41 52 -14 103 -4 136 27 21 20 34 24 58 19 80&#10;-16 122 -108 136 -295 5 -69 12 -142 15 -161 l6 -35 -32 38 c-42 50 -77 67&#10;-141 67 -50 0 -119 -25 -171 -62 -12 -9 -20 -10 -25 -2 -14 22 -52 34 -110 34&#10;-77 0 -145 -21 -194 -60 -35 -29 -42 -31 -70 -21 -17 6 -53 11 -79 11 -39 0&#10;-50 4 -60 22 -16 30 -4 145 17 169 32 35 52 189 25 189 -5 0 -8 35 -7 78 1 42&#10;-2 93 -7 113 -18 84 -150 168 -277 176 -54 3 -74 0 -116 -20z m238 -48 c70&#10;-38 111 -76 103 -96 -2 -8 0 -11 5 -8 6 3 10 4 10 1 0 -2 3 -12 7 -22 5 -13 3&#10;-15 -8 -9 -11 6 -11 5 -3 -4 7 -7 10 -21 7 -31 -4 -16 -8 -15 -31 11 -29 31&#10;-65 38 -132 24 -25 -5 -48 -2 -75 11 -22 9 -42 18 -45 18 -3 1 -16 8 -28 15&#10;-25 14 -72 7 -72 -10 0 -6 -6 -7 -12 -3 -7 4 -10 4 -6 -1 4 -4 -2 -19 -12 -33&#10;-23 -29 -26 -79 -6 -107 12 -17 11 -24 -3 -51 -15 -28 -41 -36 -41 -12 0 5 -7&#10;16 -15 24 -8 9 -15 24 -15 35 0 11 -5 29 -10 40 -8 13 -7 19 0 19 7 0 9 8 5&#10;21 -5 16 -4 19 5 14 9 -5 11 -4 6 3 -4 6 -2 22 5 34 18 33 120 129 154 145 49&#10;22 133 10 207 -28z m642 -34 c-8 -19 -14 -43 -14 -54 0 -24 -13 -33 -33 -25&#10;-13 4 -13 11 -5 37 15 42 47 89 58 82 5 -3 2 -21 -6 -40z m136 36 c0 -6 -4&#10;-13 -10 -16 -5 -3 -10 -17 -10 -31 0 -37 -17 -64 -36 -57 -13 5 -15 15 -10 50&#10;7 54 -9 49 -24 -7 -6 -22 -15 -40 -20 -40 -20 0 -20 22 -1 65 19 44 21 45 65&#10;45 25 0 46 -4 46 -9z m143 -18 c60 -19 98 -57 160 -155 26 -42 86 -123 134&#10;-179 47 -57 92 -118 99 -136 17 -39 18 -106 3 -134 -5 -11 -8 -28 -6 -37 4&#10;-14 6 -13 12 6 15 47 38 6 29 -52 -5 -30 -5 -30 11 -11 14 17 17 18 26 5 19&#10;-30 6 -73 -30 -97 -41 -28 -81 -39 -184 -52 -74 -9 -127 -30 -127 -51 0 -13&#10;37 -13 45 0 3 6 14 10 23 10 35 0 -23 -37 -114 -74 -73 -29 -105 -36 -158 -36&#10;-36 0 -66 4 -66 9 0 5 23 18 50 30 28 12 50 25 50 30 0 17 -14 19 -41 6 -28&#10;-15 -89 -21 -89 -8 0 3 7 15 17 25 25 28 9 32 -36 9 -49 -25 -88 -27 -121 -4&#10;-35 24 -40 33 -40 76 0 39 14 50 23 18 7 -28 78 -61 129 -61 24 1 67 9 97 19&#10;33 12 68 17 91 14 22 -3 40 -1 44 6 5 7 -2 11 -18 11 -30 0 -32 7 -9 32 11 12&#10;13 22 7 28 -7 7 -30 -1 -68 -21 -48 -26 -68 -31 -121 -30 -83 1 -118 17 -110&#10;48 4 17 1 23 -10 23 -9 0 -18 -7 -21 -15 -9 -21 -25 -19 -17 3 11 30 36 52 52&#10;47 11 -3 21 5 30 26 18 41 97 79 166 79 71 0 108 -25 133 -92 20 -53 20 -53&#10;31 -25 12 32 27 35 36 8 3 -11 22 -34 41 -50 32 -28 40 -31 99 -29 73 2 95 16&#10;98 64 2 23 -2 28 -15 26 -25 -4 -23 35 2 73 14 21 20 46 19 80 l-1 50 -12 -50&#10;c-16 -66 -36 -102 -46 -85 -14 23 -30 -1 -30 -45 0 -24 -5 -47 -11 -50 -12 -8&#10;-49 23 -49 41 0 21 -22 64 -33 64 -5 0 -7 -13 -3 -30 12 -64 -19 -14 -41 65&#10;-8 27 -18 84 -23 125 -5 41 -12 88 -16 104 -10 40 11 26 33 -22 12 -28 17 -32&#10;20 -19 3 10 -12 47 -32 83 -20 37 -34 68 -32 70 2 2 14 -7 27 -21 13 -14 28&#10;-25 33 -25 11 0 -48 107 -78 140 -18 20 -21 33 -17 64 3 30 1 37 -9 34 -8 -3&#10;-16 -20 -19 -38 -5 -33 -31 -52 -57 -43 -18 7 -16 30 2 37 17 6 20 51 5 61 -5&#10;3 -10 -1 -10 -11 0 -14 -3 -14 -16 -4 -13 11 -16 10 -21 -9 -8 -33 -47 -25&#10;-51 11 -4 36 31 72 61 62 12 -3 44 -13 70 -21z m-1109 -114 c31 -25 116 -49&#10;166 -48 19 0 29 3 23 6 -7 2 -13 12 -13 20 0 11 3 13 13 5 6 -6 26 -12 42 -14&#10;21 -2 29 -8 27 -19 -1 -9 4 -19 13 -23 12 -4 15 -24 15 -93 0 -77 -3 -90 -20&#10;-103 -16 -12 -20 -26 -20 -72 0 -32 4 -58 10 -58 6 0 10 12 10 28 0 28 15 60&#10;24 51 3 -3 2 -28 -3 -56 -5 -36 -18 -63 -45 -96 -31 -38 -44 -46 -84 -53 -62&#10;-10 -83 -7 -145 21 -61 27 -83 49 -92 90 l-6 30 18 -24 c38 -52 52 -66 58 -59&#10;4 4 -2 20 -14 36 -23 34 -28 57 -8 49 8 -3 12 8 12 39 0 38 -2 43 -18 38 -11&#10;-3 -27 2 -38 12 -18 16 -19 16 -19 -10 0 -16 -4 -25 -10 -21 -11 7 -9 145 1&#10;145 4 0 12 -14 19 -31 9 -22 17 -28 29 -23 9 4 30 8 47 9 16 1 36 5 43 9 8 5&#10;14 1 18 -13 9 -36 26 -24 19 14 -9 44 17 60 43 28 12 -16 24 -20 51 -16 19 2&#10;45 4 58 5 32 0 22 21 -16 33 -18 5 -32 13 -32 17 0 14 47 9 60 -7 20 -24 30&#10;-18 30 17 0 25 -3 29 -12 20 -9 -9 -15 -9 -25 0 -11 9 -26 8 -64 -1 -39 -10&#10;-53 -10 -64 -1 -12 10 -15 9 -15 -5 0 -14 -3 -15 -15 -5 -9 7 -15 8 -15 2 0&#10;-6 -26 -9 -64 -9 -62 2 -64 3 -75 33 -17 47 -13 69 15 98 32 31 34 32 68 5z&#10;m901 5 c16 6 16 4 4 -11 -11 -14 -6 -13 24 5 27 16 46 20 69 15 27 -5 29 -7&#10;13 -14 -18 -7 -17 -8 5 -9 24 -1 24 -1 6 -15 -10 -8 -23 -12 -27 -9 -5 3 -9 1&#10;-9 -4 0 -14 -52 -36 -92 -37 -35 -1 -37 0 -23 15 8 9 15 21 15 27 0 12 -29 27&#10;-45 24 -5 -1 -1 6 9 14 14 11 22 12 27 4 4 -7 15 -9 24 -5z m-1588 -24 c17 0&#10;29 -13 49 -51 23 -46 24 -53 10 -67 -21 -21 -43 -2 -52 44 -3 19 -11 34 -16&#10;34 -10 0 -8 -20 8 -82 11 -47 -12 -32 -35 22 -12 28 -26 50 -31 50 -13 0 -13&#10;-3 6 -50 17 -43 13 -70 -10 -70 -9 0 -17 14 -21 38 -3 20 -10 44 -15 52 -17&#10;28 -22 1 -9 -50 11 -44 11 -53 -1 -60 -24 -15 -35 -5 -32 28 3 30 1 32 -27 32&#10;-28 0 -30 -2 -25 -29 5 -22 1 -32 -17 -45 -28 -19 -34 -13 -43 36 -6 33 -3 42&#10;30 78 43 48 107 84 133 75 12 -3 21 0 25 11 4 11 13 14 29 10 12 -3 32 -6 44&#10;-6z m1553 -8 c0 -10 -22 -32 -32 -32 -13 0 -9 28 5 33 19 8 27 8 27 -1z m293&#10;-45 c36 -48 20 -64 -21 -20 -18 19 -26 33 -17 29 8 -3 15 -3 15 0 0 2 -10 9&#10;-22 14 -23 9 -23 9 -2 9 13 1 32 -12 47 -32z m-1192 -117 c-25 -22 -41 -26&#10;-41 -10 0 11 30 29 50 29 10 0 8 -6 -9 -19z m-676 -34 c0 -14 -4 -22 -11 -19&#10;-7 2 -15 0 -19 -6 -3 -6 -17 -8 -32 -5 -20 6 -24 4 -18 -7 6 -11 5 -11 -5 -2&#10;-10 9 -8 16 10 35 13 12 20 17 16 11 -4 -7 -2 -13 3 -13 6 0 11 8 11 17 0 15&#10;2 14 16 -3 8 -10 13 -13 9 -6 -7 13 4 37 13 28 3 -4 6 -17 7 -30z m65 14 c0&#10;-9 -31 -30 -44 -30 -12 0 -6 28 7 33 20 9 37 8 37 -3z m-190 -33 c0 -5 -7 -7&#10;-15 -3 -8 3 -15 0 -15 -7 0 -7 -11 -12 -24 -12 -13 0 -22 3 -19 8 2 4 11 7 19&#10;7 8 0 14 4 14 9 0 6 9 9 20 8 11 -1 20 -5 20 -10z m1160 -31 c-5 -5 -6 -14 -4&#10;-21 7 -17 -13 -29 -22 -14 -4 8 -3 9 4 5 7 -4 12 -2 12 3 0 6 -6 11 -12 11 -9&#10;1 -8 5 2 13 9 7 14 21 13 32 -3 20 -3 20 6 0 5 -11 5 -24 1 -29z m-1284 10 c7&#10;-8 19 -16 26 -19 9 -3 4 -13 -14 -32 -26 -26 -35 -45 -22 -45 3 0 15 11 26 26&#10;33 41 33 19 0 -38 -18 -31 -36 -82 -43 -123 -15 -87 -33 -125 -59 -125 -22 0&#10;-28 -29 -7 -31 17 -2 20 -1 41 7 18 7 19 4 12 -50 -10 -91 -53 -155 -95 -141&#10;-24 7 -26 2 -11 -26 9 -16 7 -19 -9 -19 -24 0 -51 46 -51 85 0 28 -15 34 -24&#10;9 -12 -33 -5 -82 16 -109 19 -24 26 -27 66 -22 36 4 53 14 91 51 l47 46 23&#10;-24 c19 -20 28 -23 42 -15 26 14 25 39 -1 32 -19 -5 -20 -3 -9 20 15 34 93 67&#10;157 67 41 0 59 -7 102 -36 54 -37 77 -39 44 -3 -19 21 -19 21 10 44 69 55 185&#10;64 262 21 66 -37 172 -82 212 -91 55 -11 36 10 -38 43 -38 17 -70 36 -70 41 0&#10;13 72 51 95 51 14 0 16 -7 10 -40 -8 -47 6 -53 32 -13 14 20 18 47 18 110 0&#10;82 6 100 20 66 15 -35 18 -222 5 -238 -18 -22 -8 -28 62 -33 50 -3 67 -9 85&#10;-28 28 -30 51 -30 94 1 57 41 88 56 112 53 33 -4 33 16 0 25 -29 9 -29 10 -25&#10;64 4 44 2 55 -9 51 -8 -3 -16 -23 -19 -45 -6 -43 -34 -93 -51 -93 -7 0 -9 11&#10;-7 25 8 39 -7 30 -25 -15 -8 -22 -20 -40 -26 -40 -13 0 -56 65 -66 100 -7 22&#10;-6 23 8 12 18 -15 37 -8 37 12 0 7 -17 25 -37 39 -42 30 -40 35 3 12 16 -8 35&#10;-15 42 -15 19 0 14 24 -8 38 -30 18 -25 27 25 40 63 17 65 16 59 -18 -11 -50&#10;12 -34 40 30 15 33 31 60 35 60 5 0 12 -24 15 -52 9 -62 28 -88 68 -88 30 0&#10;38 17 12 27 -23 9 3 23 44 23 26 0 32 -4 32 -22 0 -12 -12 -34 -27 -50 -27&#10;-28 -26 -45 1 -35 8 3 33 31 55 61 47 63 95 103 148 122 45 16 122 18 158 4&#10;21 -8 24 -13 16 -29 -12 -21 -79 -51 -115 -51 -26 0 -79 -37 -71 -50 3 -5 21&#10;-2 40 6 18 7 41 11 49 8 26 -10 19 -60 -13 -96 -43 -50 -64 -96 -58 -132 3&#10;-17 8 -50 12 -73 10 -57 2 -81 -41 -132 l-38 -43 32 7 c20 4 32 3 32 -4 0 -6&#10;-12 -13 -27 -16 -16 -3 -41 -13 -58 -22 -96 -53 -112 -58 -185 -61 -65 -3 -79&#10;-1 -102 18 -34 26 -35 43 -5 63 12 8 19 17 16 21 -5 5 -56 -8 -89 -24 -18 -8&#10;-26 -50 -11 -50 6 0 11 -6 11 -14 0 -7 10 -26 22 -41 20 -26 24 -27 90 -23 37&#10;3 68 1 68 -3 0 -16 44 -9 75 11 42 28 56 24 23 -5 -33 -29 -35 -35 -8 -35 11&#10;0 53 28 93 63 100 86 105 90 116 83 7 -5 7 -16 0 -34 -12 -31 -26 -42 -56 -42&#10;-26 0 -29 -10 -10 -29 10 -10 8 -16 -10 -31 -27 -21 -30 -40 -8 -40 17 0 39&#10;20 98 89 26 31 37 39 37 27 0 -10 -11 -31 -25 -48 -30 -35 -32 -52 -6 -45 16&#10;4 19 -4 25 -64 5 -61 3 -75 -18 -117 -25 -50 -76 -105 -76 -83 0 7 11 26 25&#10;43 24 29 34 78 16 78 -5 0 -18 -17 -28 -37 -20 -41 -40 -53 -45 -28 -2 14 -7&#10;13 -31 -9 -38 -35 -82 -57 -101 -50 -21 8 -20 43 1 126 12 48 15 75 8 94 -13&#10;35 -41 47 -32 13 8 -31 -21 -129 -38 -129 -7 0 -15 9 -18 20 -8 32 -27 23 -27&#10;-14 0 -31 -4 -35 -51 -55 -38 -17 -61 -21 -90 -16 -31 5 -39 4 -39 -9 0 -26&#10;39 -39 101 -33 53 5 58 3 68 -19 13 -30 5 -76 -19 -102 -21 -22 -137 -39 -154&#10;-22 -14 14 -26 12 -26 -5 0 -20 32 -35 77 -35 60 0 77 -18 70 -71 -4 -35 -13&#10;-51 -43 -75 -38 -32 -40 -60 -3 -49 27 9 24 -10 -9 -64 -16 -25 -41 -67 -56&#10;-93 -31 -56 -50 -68 -105 -68 -30 0 -41 4 -41 15 0 21 -16 19 -40 -5 -22 -22&#10;-51 -26 -81 -10 -14 8 -19 21 -19 56 0 47 -19 138 -27 130 -3 -3 -7 -29 -9&#10;-58 -6 -76 -12 -88 -41 -88 -39 0 -89 44 -109 95 -23 60 -15 180 16 253 12 29&#10;26 52 30 52 15 0 30 -28 40 -78 12 -52 33 -82 45 -63 3 6 0 37 -6 70 -9 41&#10;-10 69 -3 92 l10 34 17 -31 c19 -37 45 -45 110 -35 48 8 97 42 97 68 0 16 -8&#10;16 -65 1 -41 -11 -46 -10 -69 11 -17 16 -26 36 -28 65 -4 52 -29 61 -48 16 -7&#10;-16 -19 -30 -28 -30 -26 0 -52 31 -52 63 0 26 3 29 24 25 14 -3 31 -1 38 3 8&#10;5 26 0 46 -11 47 -28 110 -26 156 5 20 14 40 25 44 25 4 0 6 -43 4 -95 -2 -63&#10;0 -95 7 -95 7 0 11 23 11 58 0 31 5 95 10 141 5 47 8 87 5 89 -11 11 -34 -22&#10;-37 -51 -3 -34 -1 -33 -96 -37 -40 -2 -82 24 -82 50 0 26 -3 25 -36 -5 -45&#10;-42 -89 -25 -82 32 3 25 6 28 36 25 18 -2 40 2 48 8 11 10 18 8 33 -11 25 -32&#10;98 -32 159 0 40 20 62 51 25 36 -80 -34 -146 -26 -163 20 -10 27 -30 26 -30&#10;-1 0 -18 -2 -18 -45 7 -20 12 -34 26 -32 32 2 6 35 9 83 8 196 -5 272 72 277&#10;280 2 85 -1 101 -17 116 -18 17 -18 17 -13 -19 7 -44 4 -45 -30 -18 -40 32&#10;-76 21 -37 -11 23 -19 41 -59 47 -106 6 -47 1 -53 -19 -26 -21 30 -26 8 -10&#10;-41 17 -49 12 -73 -23 -113 -17 -21 -28 -23 -108 -23 -155 0 -205 38 -308 233&#10;-51 95 -71 111 -60 47 4 -26 3 -40 -4 -40 -14 0 -37 46 -45 93 -9 50 -28 48&#10;-25 -3 4 -49 -5 -60 -19 -23 -26 70 -25 83 13 118 43 41 46 59 8 44 -15 -5&#10;-39 -9 -53 -8 -39 2 -46 0 -31 -10 12 -8 8 -17 -19 -48 -69 -80 -157 -98 -248&#10;-50 -63 33 -71 16 -17 -37 26 -26 48 -37 92 -46 32 -6 72 -16 88 -22 17 -6 45&#10;-13 63 -15 41 -6 40 -16 -1 -47 -85 -65 -258 -89 -350 -48 -45 20 -84 63 -73&#10;80 3 5 32 17 64 26 64 18 107 51 80 61 -9 4 -33 -3 -54 -14 -32 -17 -57 -21&#10;-141 -21 -104 0 -106 1 -138 45 -14 20 -15 20 -21 -3 -8 -29 -38 -25 -42 6 -2&#10;13 4 32 13 42 13 14 15 28 9 66 -8 56 10 54 21 -3 5 -30 9 -34 16 -21 6 11 5&#10;34 -2 63 -14 56 -7 130 19 188 10 23 49 78 86 122 37 44 86 113 108 153 23 39&#10;44 72 46 72 2 0 10 -6 18 -14z m865 -81 c5 4 17 1 26 -4 11 -6 13 -11 5 -11&#10;-8 0 -10 -5 -6 -12 4 -7 4 -10 -1 -6 -4 4 -15 3 -25 -2 -13 -7 -20 -4 -29 16&#10;-16 35 -14 48 5 30 8 -9 20 -14 25 -11z m109 -210 c14 -19 14 -19 -2 -6 -19&#10;14 -25 2 -8 -15 5 -5 16 -47 24 -94 8 -47 18 -92 21 -101 5 -13 -2 -18 -30&#10;-23 -21 -4 -39 -5 -42 -2 -3 3 4 32 15 65 20 60 18 113 -8 161 -6 11 -5 21 2&#10;28 7 7 12 11 13 9 0 -1 7 -11 15 -22z m54 -10 c11 -8 15 -15 9 -15 -6 0 -10&#10;-7 -9 -16 2 -27 -23 -28 -33 -2 -8 23 -5 48 8 48 3 0 15 -7 25 -15z m666 -199&#10;c14 -38 55 -59 119 -62 31 -1 62 -3 68 -3 7 -1 15 -12 19 -26 3 -14 17 -34 30&#10;-44 31 -25 30 -28 -11 -35 -19 -4 -47 -18 -62 -32 l-28 -26 -20 25 c-20 25&#10;-33 30 -68 28 -22 -1 -82 -60 -92 -90 -3 -12 -11 -19 -16 -16 -12 8 -11 -2 3&#10;-28 16 -29 18 -47 7 -47 -6 0 -7 -6 -3 -12 5 -8 1 -8 -12 2 -30 22 -30 24 -9&#10;16 17 -5 16 -3 -4 12 -16 13 -20 22 -12 26 6 4 11 16 11 27 0 10 5 19 10 19 6&#10;0 10 12 10 26 0 14 5 35 11 46 8 15 8 19 0 13 -8 -5 -10 2 -6 22 5 21 4 24 -4&#10;13 -9 -13 -11 -13 -11 3 0 10 7 17 18 17 10 0 24 8 33 18 15 17 15 28 2 62 -4&#10;8 -6 18 -5 22 1 4 -6 4 -15 1 -14 -6 -14 -3 3 20 10 14 20 27 22 27 1 0 7 -11&#10;12 -24z m-1355 -176 c-3 -5 -1 -19 5 -30 11 -21 2 -20 -48 6 -21 11 -21 12 -5&#10;19 10 5 24 7 32 6 8 -1 10 2 5 10 -4 8 -3 10 5 5 6 -4 9 -11 6 -16z m55 -6 c0&#10;-8 -2 -14 -4 -14 -2 0 -11 -3 -20 -6 -19 -7 -22 16 -4 34 13 13 28 7 28 -14z&#10;m25 -14 c-3 -4 6 -11 20 -14 13 -3 34 -16 45 -28 11 -12 33 -23 48 -24 15 -1&#10;30 -3 34 -3 4 -1 4 -8 1 -18 -4 -10 -2 -14 4 -10 6 4 14 0 17 -9 4 -10 2 -13&#10;-7 -9 -6 4 -1 -4 13 -17 14 -13 34 -40 45 -60 10 -20 22 -35 27 -32 4 3 5 -2&#10;2 -10 -5 -13 -10 -14 -32 -2 -19 10 -32 11 -43 3 -13 -8 -25 -3 -56 23 -53 45&#10;-87 48 -104 9 l-12 -30 -28 31 c-17 18 -34 28 -41 24 -7 -4 -8 -3 -4 4 5 8 -1&#10;12 -16 13 -20 1 -21 2 -3 6 11 3 23 10 26 15 4 6 12 7 18 4 6 -4 9 -11 7 -15&#10;-8 -13 55 -12 72 1 9 7 17 25 17 39 0 21 -4 25 -22 23 -13 -1 -21 2 -17 7 11&#10;18 -8 9 -27 -13 -19 -22 -19 -22 -8 -2 10 18 10 25 -4 38 -14 14 -14 21 -4 36&#10;6 11 15 20 20 20 4 0 5 5 1 12 -4 7 -3 8 5 4 6 -4 9 -11 6 -16z m1376 -37 c13&#10;-35 -2 -100 -36 -154 -29 -45 -39 -47 -79 -15 l-29 24 31 16 c17 9 36 25 42&#10;36 12 23 7 25 -21 10 -31 -17 -41 -3 -23 33 40 78 95 102 115 50z m-1907 -22&#10;c3 -4 -2 -17 -10 -27 -10 -13 -17 -15 -20 -7 -3 7 -12 9 -21 6 -12 -5 -14 -3&#10;-8 6 6 10 2 11 -16 6 -16 -5 -21 -4 -14 3 9 9 34 16 72 21 6 0 14 -3 17 -8z&#10;m556 -66 c0 -13 -35 -27 -44 -18 -3 3 -1 14 5 24 10 20 39 15 39 -6z m61 -95&#10;c11 -6 19 -21 19 -36 0 -30 25 -92 46 -115 24 -27 9 -61 -24 -57 -20 2 -30 11&#10;-37 33 -5 17 -20 44 -32 59 -17 21 -23 42 -23 77 0 52 11 60 51 39z m62 -57&#10;c3 -16 3 -30 1 -33 -7 -7 -24 23 -24 43 0 27 17 20 23 -10z m80 -2 c41 -26 46&#10;-54 10 -59 -22 -3 -33 10 -53 63 -11 30 -11 30 43 -4z m1072 -12 c-21 -58 -25&#10;-63 -41 -42 -19 25 -18 29 13 58 38 35 44 32 28 -16z m-1002 4 c7 2 18 -2 25&#10;-9 11 -12 10 -15 -2 -20 -12 -4 -13 -11 -5 -32 6 -15 15 -29 20 -33 6 -3 -3&#10;-6 -20 -7 -17 0 -34 4 -37 10 -5 7 0 9 14 6 12 -4 20 -2 16 3 -3 5 -12 9 -20&#10;9 -17 0 -18 22 -2 38 9 9 9 15 0 24 -7 7 -11 19 -11 28 1 11 3 10 6 -3 3 -10&#10;10 -16 16 -14z m-19 -112 c10 -16 -5 -41 -24 -41 -23 0 -34 16 -26 35 6 16 42&#10;20 50 6z m-55 -57 c11 -14 25 -23 31 -19 5 3 10 -1 10 -10 0 -9 4 -14 9 -10&#10;18 10 23 -36 7 -54 -9 -10 -16 -23 -16 -29 0 -19 -30 -14 -37 6 -3 9 -26 35&#10;-51 57 l-44 39 29 23 c35 29 37 29 62 -3z m711 -127 c0 -9 7 -20 15 -23 8 -4&#10;15 -12 15 -19 0 -15 73 -10 78 5 2 6 9 10 15 10 6 0 18 7 28 16 16 14 19 12&#10;45 -22 28 -36 28 -37 9 -53 -11 -9 -26 -27 -32 -41 -27 -53 -50 -89 -55 -84&#10;-3 2 -4 -7 -3 -21 2 -14 -1 -23 -6 -19 -5 3 -9 -6 -9 -20 0 -14 -5 -28 -10&#10;-31 -6 -4 -8 -10 -5 -15 7 -11 -5 -40 -17 -40 -11 0 -6 46 8 90 4 14 8 49 8&#10;78 -1 47 -4 56 -30 77 l-28 23 -33 -25 c-18 -14 -33 -31 -33 -39 0 -7 -5 -25&#10;-12 -41 -6 -15 -10 -34 -9 -42 1 -7 -2 -10 -8 -6 -6 3 -11 1 -11 -6 0 -7 -2&#10;-10 -5 -7 -3 3 -1 17 4 32 10 25 -2 39 -12 14 -4 -10 -6 -10 -6 0 -1 8 8 16&#10;20 19 16 4 17 8 7 14 -10 7 -10 9 2 9 19 0 42 76 33 111 -3 13 -15 35 -27 48&#10;-11 13 -16 21 -10 18 6 -3 17 4 24 17 11 22 13 23 31 8 11 -9 19 -25 19 -35z&#10;m-630 -87 c0 -4 14 -7 30 -8 17 0 28 3 26 7 -3 4 4 7 14 8 11 1 19 -1 19 -5&#10;-4 -26 2 -55 9 -45 6 9 12 7 25 -7 16 -19 15 -20 -6 -17 -12 1 -26 9 -32 18&#10;-7 12 -16 14 -32 8 -13 -5 -23 -13 -23 -19 0 -6 -5 -8 -12 -4 -7 5 -9 2 -6 -7&#10;4 -10 -1 -15 -13 -15 -11 0 -19 7 -19 18 0 9 -4 19 -8 22 -15 9 -1 65 14 59 8&#10;-3 14 -8 14 -13z m675 -57 c4 -16 8 -36 10 -46 2 -10 -4 -42 -14 -70 -13 -37&#10;-16 -72 -13 -123 4 -74 -7 -114 -33 -114 -10 0 -12 9 -8 36 8 49 -18 42 -28&#10;-7 -12 -55 -102 -119 -116 -82 -4 9 -1 30 6 47 7 17 16 49 20 71 8 46 23 76&#10;46 95 20 17 65 103 65 125 0 22 38 95 50 95 5 0 12 -12 15 -27z m-785 -357 c0&#10;-7 7 -19 15 -26 9 -7 13 -15 11 -17 -10 -10 47 -61 62 -56 9 4 13 2 9 -4 -12&#10;-18 73 -21 84 -3 8 12 9 10 5 -8 -2 -13 -2 -21 1 -18 3 3 18 -3 32 -13 38 -27&#10;70 -35 87 -20 9 7 40 11 80 10 46 -1 73 3 94 16 17 9 30 20 30 24 0 3 9 17 20&#10;30 18 20 24 21 40 11 26 -16 51 -15 78 4 12 8 22 12 22 8 0 -4 10 4 23 17 12&#10;13 33 24 47 24 14 0 29 5 33 10 5 6 5 0 2 -12 -4 -16 -2 -23 7 -23 10 0 9 -3&#10;-2 -10 -8 -5 -10 -10 -4 -10 15 0 44 -72 44 -109 0 -24 -5 -30 -32 -36 -18 -4&#10;-35 -9 -38 -10 -3 -1 -18 -5 -35 -10 -16 -4 -52 -19 -80 -33 -27 -14 -53 -25&#10;-57 -24 -5 1 -8 -2 -8 -7 0 -5 -19 -20 -42 -34 -61 -36 -130 -112 -162 -179&#10;-24 -50 -28 -69 -27 -144 0 -47 3 -96 7 -107 6 -19 5 -20 -10 -8 -9 7 -16 20&#10;-16 29 0 8 -3 12 -6 9 -7 -7 -44 55 -44 74 0 6 7 17 15 25 23 24 19 59 -10 72&#10;-14 6 -25 16 -25 22 0 5 -8 10 -17 10 -9 0 -14 2 -11 5 3 3 -10 21 -29 40 -20&#10;20 -31 39 -27 46 4 7 3 9 -4 5 -13 -8 -86 79 -77 93 3 7 0 8 -9 5 -10 -4 -17&#10;2 -21 19 -4 14 -15 33 -26 43 -10 9 -16 21 -13 25 3 5 0 9 -6 9 -6 0 -8 5 -4&#10;12 4 7 3 8 -5 4 -6 -4 -8 -12 -5 -18 4 -6 -7 -1 -23 12 -17 12 -46 23 -64 25&#10;-29 2 -34 6 -33 28 1 33 24 87 36 87 5 0 6 5 3 10 -3 6 -1 10 5 10 6 0 8 5 5&#10;10 -3 6 -1 10 4 10 6 0 11 4 11 10 0 15 33 50 47 50 7 0 13 -6 13 -14z m-49&#10;-249 c18 -12 47 -42 64 -66 16 -23 50 -66 75 -94 25 -29 62 -72 82 -97 20 -25&#10;52 -54 72 -65 35 -19 44 -44 20 -52 -12 -4 -40 19 -46 38 -3 9 -10 8 -26 -2&#10;-26 -16 -35 -7 -52 51 -12 43 -46 100 -60 100 -6 0 -4 -16 6 -37 30 -71 34&#10;-98 28 -189 -5 -62 -3 -97 5 -112 16 -30 31 -19 31 22 0 56 19 98 43 94 27 -4&#10;113 -124 145 -203 32 -80 43 -221 18 -231 -22 -8 -62 29 -75 70 -6 17 -15 61&#10;-22 98 -11 70 -29 83 -29 23 0 -53 20 -136 46 -187 13 -26 24 -54 24 -62 0 -9&#10;-16 -45 -36 -81 -55 -100 -110 -101 -159 -4 -40 81 -58 185 -55 327 1 83 -2&#10;122 -9 122 -7 0 -11 -23 -12 -57 -1 -81 -20 -158 -39 -158 -11 0 -21 28 -37&#10;98 -22 99 -28 116 -39 104 -5 -5 24 -170 42 -234 4 -14 2 -23 -4 -23 -31 0&#10;-83 188 -83 298 1 54 -7 113 -20 165 -17 64 -20 98 -15 157 10 127 40 210 76&#10;210 4 0 22 -10 41 -23z m890 -18 c14 -27 23 -249 11 -268 -14 -20 -30 -6 -43&#10;39 -7 22 -18 40 -26 40 -17 0 -16 -5 3 -69 15 -50 51 -101 73 -101 20 0 41 33&#10;41 66 0 63 17 35 49 -79 52 -188 64 -366 33 -467 -14 -42 -22 -55 -37 -55 -35&#10;0 -48 63 -42 210 3 72 2 145 0 163 -11 67 -20 27 -26 -110 -7 -144 -20 -218&#10;-38 -218 -11 0 -27 34 -94 208 -26 67 -52 122 -57 122 -6 0 -8 -6 -5 -12 16&#10;-44 49 -145 71 -220 19 -62 38 -101 67 -138 40 -50 41 -54 30 -90 -19 -65 -52&#10;-131 -67 -137 -19 -7 -63 33 -80 73 -7 17 -17 112 -24 220 -6 104 -14 200 -17&#10;214 -6 25 -6 25 -13 -5 -4 -16 -9 -77 -10 -135 -3 -166 -23 -196 -70 -109 -14&#10;25 -39 63 -56 85 -39 48 -66 101 -106 207 -26 69 -32 97 -32 172 -1 77 3 98&#10;25 145 46 96 166 193 304 243 88 32 121 34 136 6z m-841 -779 c1 29 30 -52 32&#10;-91 2 -21 6 -39 10 -39 4 0 4 -7 1 -17 -5 -12 -3 -14 7 -8 10 6 12 4 7 -8 -3&#10;-9 -1 -17 6 -20 8 -2 6 -9 -5 -21 -17 -16 -19 -15 -36 13 -10 17 -22 28 -26&#10;24 -4 -4 -4 0 0 10 3 10 1 17 -6 17 -6 0 -8 5 -5 10 3 6 2 10 -3 10 -6 0 -12&#10;6 -15 13 -3 6 -12 29 -21 49 -13 31 -14 36 -2 32 9 -3 20 3 28 15 9 14 14 17&#10;20 8 6 -9 8 -8 8 3z m369 -123 c-5 -17 -4 -60 1 -101 9 -68 10 -116 2 -116 -2&#10;0 -12 10 -21 22 l-18 22 -18 -27 c-9 -15 -21 -24 -26 -21 -5 3 -6 -2 -3 -10 3&#10;-8 -1 -25 -9 -37 -9 -12 -13 -29 -9 -38 5 -14 3 -14 -10 -3 -14 11 -16 10 -12&#10;-10 5 -21 5 -22 -7 -4 -9 15 -9 21 2 30 30 23 9 85 -28 87 -5 0 -12 4 -18 9&#10;-5 4 -18 6 -27 5 -9 -2 -19 3 -21 9 -4 9 8 13 36 14 38 2 86 34 80 54 -2 4 4&#10;5 12 2 11 -5 17 3 21 25 4 17 11 31 17 31 6 0 8 3 4 6 -3 4 0 21 8 39 7 19 10&#10;37 7 41 -4 4 1 4 11 1 12 -5 17 -1 17 11 0 14 2 14 9 3 5 -8 5 -27 0 -44z&#10;m504 26 c-3 -7 2 -13 10 -13 9 0 22 -6 29 -14 23 -22 55 -29 61 -12 3 8 14 19&#10;25 25 17 9 19 6 20 -42 1 -62 -18 -98 -48 -90 -11 3 -20 12 -20 20 0 8 -14 28&#10;-31 45 -24 24 -28 33 -17 40 10 8 9 9 -4 5 -17 -6 -30 6 -40 34 -4 9 -1 16 7&#10;16 7 0 11 -6 8 -14z m-237 -81 c7 -4 14 -20 15 -37 2 -16 8 -33 14 -37 6 -5 5&#10;-8 -3 -8 -8 0 -5 -8 8 -22 11 -12 20 -27 20 -34 0 -7 6 -14 13 -17 7 -2 8 -8&#10;3 -13 -5 -5 -11 -4 -13 4 -3 7 -10 18 -16 25 -33 36 -81 147 -64 147 7 0 17&#10;-4 23 -8z m-547 -64 c9 -15 15 -52 15 -103 1 -71 5 -89 40 -162 21 -44 35 -86&#10;31 -93 -13 -21 -32 9 -58 93 -22 71 -32 124 -52 260 -5 33 5 35 24 5z m241&#10;-193 c-12 -40 -36 -75 -52 -75 -13 0 -9 23 11 61 11 20 23 54 27 75 3 22 9 44&#10;13 49 12 19 12 -70 1 -110z m-138 85 c40 0 45 -8 27 -43 -17 -32 -17 -32 -39&#10;-12 -18 16 -20 16 -20 2 0 -9 14 -29 30 -44 22 -19 30 -35 30 -60 0 -41 -15&#10;-43 -23 -4 -4 16 -20 43 -37 61 -25 25 -30 39 -30 77 0 37 3 44 12 35 7 -7 29&#10;-12 50 -12z m644 -27 c2 -16 18 -42 39 -61 19 -18 35 -37 35 -42 0 -15 -22&#10;-23 -30 -11 -7 13 -29 19 -70 20 -18 1 -32 12 -50 41 -14 22 -28 40 -33 40 -4&#10;0 -5 5 -2 10 3 6 -2 10 -11 10 -14 0 -15 3 -6 12 8 8 15 8 28 -2 20 -18 44&#10;-21 44 -7 0 5 3 8 6 4 4 -3 13 1 21 9 19 18 25 13 29 -23z m-476 -118 c-7 -8&#10;-10 -15 -6 -15 14 0 -24 -58 -49 -74 -25 -17 -26 -18 -10 -42 9 -14 15 -39 13&#10;-56 -2 -18 2 -33 9 -35 16 -6 26 31 18 68 -5 20 -1 38 10 55 16 25 17 25 36 8&#10;10 -9 21 -33 25 -53 3 -20 15 -69 26 -110 20 -74 19 -116 -4 -174 -15 -38 -32&#10;-21 -54 53 -10 33 -21 60 -25 60 -12 0 1 -78 37 -218 19 -73 34 -149 34 -168&#10;0 -56 -22 -36 -45 39 -11 36 -23 69 -27 73 -15 14 -8 -31 16 -116 14 -47 32&#10;-119 41 -161 15 -73 37 -121 49 -108 4 3 -1 25 -9 49 -28 79 -14 86 16 7 39&#10;-106 46 -150 25 -181 -20 -32 -20 -46 -1 -46 9 0 20 12 26 27 8 23 12 24 24&#10;12 39 -39 21 -99 -29 -99 -51 0 -131 -33 -178 -73 -46 -41 -66 -48 -170 -64&#10;-31 -4 -38 -2 -38 12 0 9 14 30 30 45 17 15 30 34 30 41 0 7 -16 -4 -37 -24&#10;-32 -32 -53 -45 -53 -33 0 2 25 30 55 62 53 57 77 97 35 59 -11 -10 -20 -13&#10;-20 -8 0 17 89 111 118 125 33 16 50 73 51 168 1 69 -1 75 -48 245 -17 61 -33&#10;123 -36 139 -4 19 -9 26 -16 19 -7 -7 -5 -31 6 -73 14 -53 14 -85 2 -69 -26&#10;31 -90 170 -102 220 -17 73 -20 189 -5 189 6 0 10 -10 10 -23 0 -13 7 -32 16&#10;-43 14 -18 15 -14 9 49 -5 66 -5 67 19 67 27 0 56 33 56 63 0 9 8 20 18 24 25&#10;9 87 65 84 76 -3 11 19 39 26 32 3 -2 -1 -11 -8 -20z m610 -75 c-10 -6 -11&#10;-10 -2 -10 19 0 14 -17 -8 -23 -11 -3 -20 -1 -20 3 0 21 14 40 29 40 14 0 14&#10;-2 1 -10z m-810 -74 c0 -8 -4 -18 -10 -21 -6 -3 -7 1 -4 9 3 9 3 16 0 16 -4 0&#10;-11 -10 -16 -22 -8 -22 -9 -22 -9 -2 -1 11 2 24 6 27 12 12 33 7 33 -7z m844&#10;-359 l14 -69 -28 29 c-23 24 -76 110 -55 91 3 -3 16 3 28 15 11 11 22 17 24&#10;11 1 -5 9 -40 17 -77z m-541 24 c-11 -46 -22 -71 -32 -71 -5 0 -9 8 -9 18 1 9&#10;-2 27 -6 40 -7 21 0 27 26 23 4 0 5 6 2 14 -5 11 -2 13 10 9 11 -4 14 -13 9&#10;-33z"/>
    <path d="M1480 4707 c0 -19 -40 -29 -58 -15 -10 9 -16 8 -23 -3 -7 -11 -9 -11&#10;-9 4 0 9 -5 17 -11 17 -6 0 -9 -12 -7 -27 2 -20 8 -27 20 -25 9 1 19 -2 23 -8&#10;10 -16 32 -12 59 14 28 25 32 41 16 51 -5 3 -10 0 -10 -8z"/>
    <path d="M1500 4631 c0 -14 -113 -22 -122 -8 -6 9 -10 8 -18 -3 -14 -22 -6&#10;-35 21 -33 86 6 154 12 157 12 1 1 -2 10 -8 21 -11 20 -30 27 -30 11z"/>
    <path d="M1465 4569 c-16 -5 -40 -6 -53 -2 -20 5 -23 2 -20 -13 6 -32 118 -32&#10;118 1 0 20 -11 23 -45 14z"/>
    <path d="M100 4249 c0 -23 24 -41 44 -33 22 8 21 26 -1 22 -10 -2 -23 3 -30&#10;12 -11 13 -12 13 -13 -1z"/>
    <path d="M1520 3910 c-12 -7 -12 -12 -3 -21 10 -10 18 -10 38 -1 14 6 25 16&#10;25 22 0 13 -40 13 -60 0z"/>
    <path d="M1865 3911 c-3 -6 -11 -9 -16 -6 -5 4 -9 -1 -9 -9 0 -22 15 -27 36&#10;-11 14 10 16 17 8 25 -9 9 -14 9 -19 1z"/>
    <path d="M1095 3830 c-8 -13 3 -30 20 -30 23 0 25 15 5 28 -12 7 -21 8 -25 2z"/>
    <path d="M1418 3693 c-6 -28 2 -53 18 -53 9 0 14 11 14 35 0 37 -24 50 -32 18z"/>
    <path d="M1970 3647 c0 -13 -9 -32 -20 -42 -22 -20 -18 -35 9 -35 23 0 45 50&#10;36 79 -9 28 -25 27 -25 -2z"/>
    <path d="M1479 3638 c-6 -66 35 -84 130 -58 51 13 53 30 5 30 -21 0 -47 8 -61&#10;20 -29 22 -72 27 -74 8z"/>
    <path d="M1881 3561 c-6 -11 -20 -23 -31 -26 -11 -4 -20 -15 -20 -27 0 -17 4&#10;-19 28 -14 31 8 64 43 60 64 -5 24 -26 25 -37 3z"/>
    <path d="M1405 3210 c-4 -6 -15 -8 -26 -5 -24 8 -26 -17 -3 -39 21 -22 54 -4&#10;54 29 0 26 -14 33 -25 15z"/>
    <path d="M1241 199 c-56 -63 -63 -94 -10 -43 33 31 74 92 67 99 -2 3 -28 -23&#10;-57 -56z"/>
    <path d="M2194 393 c3 -10 10 -36 15 -59 15 -56 141 -217 141 -179 0 3 -27 39&#10;-59 80 -41 53 -63 90 -71 125 -7 28 -16 50 -22 50 -5 0 -7 -8 -4 -17z"/>
    <path d="M2326 278 c7 -22 11 -46 13 -75 1 -14 31 -18 31 -5 0 18 -35 102 -43&#10;102 -4 0 -5 -10 -1 -22z"/>
  </g>
</svg>