<?xml version="1.0" encoding="utf-8"?>
<svg viewBox="0 10 500 500" width="500" height="500" xmlns="http://www.w3.org/2000/svg">
  <g transform="matrix(0.08620700985193253, 0, 0, -0.09782099723815918, 139.01129150390628, 438.91778564453125)" fill="#000000" stroke="none">
    <path d="M406 2841 c-7 -11 84 -420 125 -560 39 -137 70 -200 130 -265 l49&#10;-54 0 -344 c0 -379 -4 -411 -62 -520 -68 -128 -154 -187 -446 -308 -132 -55&#10;-152 -66 -152 -86 0 -12 6 -24 13 -27 21 -8 419 166 476 207 103 76 186 202&#10;216 328 11 49 15 137 15 387 l0 323 28 -18 c120 -79 305 -164 501 -231 130&#10;-44 138 -45 225 -40 76 4 111 12 211 50 205 77 358 150 468 221 l27 18 0 -321&#10;c0 -254 3 -336 15 -389 31 -132 121 -264 230 -337 65 -43 444 -205 463 -198 6&#10;3 12 15 12 27 0 20 -20 31 -152 86 -292 121 -378 180 -446 308 -58 109 -62&#10;141 -62 520 l0 344 47 52 c58 63 94 133 128 252 38 130 134 556 128 571 -5 13&#10;-53 19 -53 7 0 -21 -107 -473 -131 -555 -53 -178 -96 -239 -238 -334 -88 -58&#10;-281 -151 -441 -212 -120 -46 -129 -47 -230 -47 -101 0 -110 1 -230 47 -279&#10;106 -528 251 -593 344 -57 83 -90 186 -166 526 -28 124 -51 228 -51 231 0 9&#10;-48 7 -54 -3z"/>
    <path d="M920 1700 c-18 -11 -15 -50 16 -219 46 -252 115 -465 196 -603 40&#10;-70 56 -80 79 -52 10 12 10 19 1 32 -89 126 -193 447 -232 717 -16 114 -18&#10;122 -33 128 -8 3 -20 1 -27 -3z"/>
    <path d="M2047 1695 c-8 -7 -17 -41 -20 -75 -26 -246 -138 -606 -233 -752 -15&#10;-22 -16 -29 -5 -42 23 -28 39 -18 79 52 81 139 150 353 196 602 23 126 30 178&#10;27 206 -2 19 -29 24 -44 9z"/>
    <path d="M216 523 c-4 -9 -1 -22 6 -29 7 -6 85 -23 173 -38 166 -27 401 -84&#10;565 -135 81 -26 97 -28 109 -17 7 8 11 21 8 28 -11 31 -406 138 -670 183 -176&#10;30 -183 30 -191 8z"/>
    <path d="M2590 515 c-266 -46 -656 -153 -667 -183 -3 -7 1 -20 10 -29 13 -14&#10;26 -12 124 21 157 52 365 102 548 132 88 15 166 32 173 38 20 19 4 46 -27 45&#10;-14 0 -87 -11 -161 -24z"/>
  </g>
</svg>