<?xml version="1.0" encoding="utf-8"?>
<svg viewBox="0 0 500 500" width="500" height="500" xmlns="http://www.w3.org/2000/svg">
  <g transform="matrix(0.1579730063676834, 0, 0, -0.1667809933423996, 109.5727233886719, 435.2940368652344)" fill="#000000" stroke="none">
    <path d="M1345 1886 c-71 -32 -123 -123 -110 -193 14 -74 22 -83 85 -83 l57 0&#10;26 49 c29 52 51 68 73 50 7 -6 34 -47 60 -90 l46 -80 25 36 c23 34 26 35 87&#10;35 46 0 67 -4 77 -16 22 -27 -1 -49 -57 -52 -48 -3 -50 -5 -77 -52 -42 -75&#10;-61 -70 -122 35 -28 46 -52 85 -55 84 -3 0 -14 -14 -25 -32 -19 -29 -26 -32&#10;-68 -31 -26 0 -47 -1 -47 -3 0 -2 52 -69 116 -148 118 -148 143 -167 183 -145&#10;25 13 288 340 313 390 38 72 9 179 -61 225 -81 54 -181 39 -245 -37 l-35 -40&#10;-33 38 c-58 66 -145 90 -213 60z m118 -31 c16 -3 51 -27 78 -52 l50 -46 47 45&#10;c41 40 93 66 127 63 89 -8 145 -57 152 -132 3 -26 0 -60 -5 -74 -6 -15 -74&#10;-106 -151 -203 -178 -222 -165 -219 -285 -68 -47 59 -86 109 -86 112 1 3 17&#10;16 38 29 34 21 37 22 47 6 37 -61 72 -110 86 -118 29 -18 66 1 93 48 25 43 29&#10;45 71 45 34 0 47 5 59 22 22 31 20 64 -4 88 -29 29 -136 29 -173 0 l-26 -21&#10;-27 43 c-14 24 -33 53 -41 66 -8 13 -26 27 -40 33 -22 8 -30 6 -50 -13 -13&#10;-12 -33 -38 -45 -56 -18 -30 -24 -33 -62 -30 l-41 3 -3 70 c-3 68 -2 71 30&#10;102 30 29 95 54 123 47 6 -1 23 -5 38 -9z"/>
    <path d="M875 1776 c-98 -42 -124 -173 -52 -250 110 -116 308 -9 267 145 -26&#10;95 -126 144 -215 105z m114 -32 c52 -21 71 -51 71 -115 0 -45 -4 -55 -34 -85&#10;-29 -29 -41 -34 -80 -34 -87 0 -136 47 -136 129 0 62 56 115 127 120 7 1 30&#10;-6 52 -15z"/>
    <path d="M559 1432 c-59 -20 -114 -44 -124 -51 -24 -21 -115 -206 -115 -234 0&#10;-32 40 -67 76 -67 39 0 62 25 107 116 34 68 38 72 92 91 50 19 56 19 50 5 -13&#10;-36 -95 -333 -95 -347 0 -8 12 -28 28 -45 24 -27 41 -33 152 -55 192 -38 173&#10;-29 154 -73 -94 -223 -97 -239 -54 -282 29 -29 95 -27 121 2 30 34 159 353&#10;159 392 0 55 -38 79 -158 101 -56 10 -102 19 -102 20 0 1 17 48 38 105 l39&#10;102 52 -71 c70 -94 82 -97 190 -40 112 58 141 83 141 120 0 35 -39 79 -70 79&#10;-12 0 -48 -16 -81 -35 l-59 -34 -44 57 c-24 31 -55 67 -69 80 -34 32 -230 102&#10;-281 101 -23 0 -89 -17 -147 -37z m281 -31 c121 -42 120 -41 215 -155 l40 -49&#10;64 32 c76 39 115 39 119 0 4 -31 -15 -47 -124 -104 -46 -24 -79 -35 -92 -31&#10;-10 4 -40 34 -66 67 -51 66 -71 79 -90 58 -17 -18 -76 -179 -76 -206 0 -32 19&#10;-41 125 -63 54 -11 104 -25 112 -31 7 -6 13 -25 13 -41 0 -34 -133 -358 -152&#10;-370 -36 -23 -98 5 -98 44 0 10 20 68 45 128 25 60 45 116 45 124 0 27 -42 44&#10;-174 70 -126 25 -166 43 -166 74 0 8 21 90 47 183 43 158 46 171 30 186 -15&#10;16 -20 16 -72 -1 -60 -18 -72 -32 -131 -146 -21 -39 -36 -56 -52 -58 -28 -4&#10;-52 14 -52 39 0 23 83 191 102 206 12 9 176 66 223 76 39 9 51 6 165 -32z"/>
    <path d="M1523 1081 c-111 -31 -210 -63 -219 -73 -14 -14 -15 -22 -4 -67 14&#10;-60 34 -84 64 -77 12 2 42 8 67 11 l45 7 23 -252 c12 -139 20 -254 17 -257 -4&#10;-5 -1305 -92 -1384 -93 -13 0 -37 -13 -53 -29 -39 -40 -39 -82 0 -122 l29 -29&#10;775 0 c761 0 775 0 800 20 14 11 28 33 31 48 3 15 -9 187 -27 382 -23 243 -30&#10;357 -23 362 6 4 35 10 64 14 75 9 86 28 66 114 -13 58 -41 103 -63 99 -3 -1&#10;-97 -27 -208 -58z m234 -8 c3 -16 7 -46 7 -68 l1 -39 -51 -11 c-67 -13 -84&#10;-29 -84 -75 0 -20 11 -162 25 -314 31 -347 32 -411 6 -426 -13 -7 -277 -10&#10;-785 -10 l-766 0 -16 24 c-21 33 -14 68 16 82 14 7 77 15 140 19 63 3 358 22&#10;655 41 297 18 557 34 577 34 28 0 41 6 53 24 14 21 14 46 -6 272 -16 184 -26&#10;254 -37 267 -13 14 -29 17 -86 15 l-70 -3 -8 39 c-5 21 -6 41 -3 44 8 8 377&#10;110 402 111 17 1 24 -6 30 -26z"/>
    <path d="M505 808 c-3 -7 -36 -105 -73 -217 l-69 -203 36 6 c20 3 64 6 97 6&#10;l61 0 58 168 c32 92 60 172 62 177 2 6 -23 16 -56 23 -32 7 -70 22 -85 33 -20&#10;16 -27 17 -31 7z m133 -83 c4 -3 -90 -269 -101 -282 -10 -13 -127 -19 -127 -6&#10;0 4 25 79 56 168 l56 162 56 -20 c32 -11 58 -21 60 -22z"/>
  </g>
</svg>