<?xml version="1.0" encoding="utf-8"?>
<svg viewBox="-60 50 500 500 " width="500" height="500" xmlns="http://www.w3.org/2000/svg">
  <g transform="matrix(0.10000000149011612, 0, 0, -0.10000000149011612, 38.23411178588867, 447.3323059082031)" fill="#000000" stroke="none">
    <path d="M 885 2744 C 778 2723 750 2715 715 2698 C 663 2672 603 2615 579 2568 C 524 2462 516 2341 500 1371 L 491 766 L 453 727 C 379 651 345 631 232 597 C 62 545 7 498 7 404 C 7 348 36 301 90 272 L 135 248 L 560 255 C 1040 262 1028 260 1073 344 C 1093 382 1095 398 1094 535 C 1093 618 1085 750 1076 830 C 1054 1014 1045 1161 1053 1192 C 1057 1206 1089 1252 1125 1296 C 1198 1382 1240 1463 1264 1555 C 1285 1640 1303 1774 1298 1810 C 1295 1826 1294 1840 1295 1840 C 1296 1840 1326 1820 1362 1797 C 1475 1721 1647 1660 1845 1624 C 1985 1599 2262 1599 2385 1623 C 2662 1679 2892 1847 2960 2045 C 2983 2111 2990 2342 2987 2410 C 2981 2534 2954 2608 2891 2671 C 2809 2754 2863 2750 1821 2749 C 1317 2748 896 2746 885 2744 Z M 2766 2655 C 2869 2625 2910 2539 2918 2340 C 2925 2155 2896 2037 2825 1951 C 2801 1924 2792 1920 2746 1920 C 2717 1920 2689 1915 2682 1908 C 2665 1891 2667 1861 2685 1854 C 2710 1844 2703 1836 2638 1798 C 2489 1713 2345 1680 2120 1680 C 1884 1680 1685 1722 1505 1810 C 1389 1866 1334 1910 1291 1980 C 1259 2032 1233 2043 1210 2015 C 1200 2003 1200 1988 1211 1937 C 1239 1811 1215 1592 1160 1473 C 1144 1438 1105 1383 1070 1345 C 963 1230 962 1220 1004 785 C 1032 501 1032 422 1005 369 L 991 343 L 704 337 C 141 324 112 326 90 385 C 67 447 118 487 266 525 C 376 554 410 573 488 650 C 576 738 571 700 581 1259 C 595 2044 608 2389 623 2445 C 661 2584 729 2638 892 2659 C 926 2664 1351 2668 1836 2669 C 2586 2670 2724 2668 2766 2655 Z"/>
    <path d="M895 2421 c-80 -35 -116 -178 -53 -212 29 -15 48 6 48 53 0 75 30 94&#10;106 66 62 -22 87 34 33 75 -30 21 -103 32 -134 18z"/>
    <path d="M1371 1977 c-17 -21 -5 -56 22 -61 93 -19 127 -13 127 23 0 28 -23&#10;42 -82 48 -41 4 -57 2 -67 -10z"/>
    <path d="M1690 1945 c-10 -12 -10 -21 -2 -40 9 -20 19 -25 49 -25 21 0 47 -3&#10;59 -6 23 -6 54 18 54 41 0 7 -7 21 -16 29 -21 22 -127 22 -144 1z"/>
    <path d="M2026 1925 c-35 -36 -14 -60 60 -68 54 -6 94 10 94 37 0 22 -22 33&#10;-81 40 -45 6 -60 4 -73 -9z"/>
    <path d="M2352 1918 c-16 -16 -15 -43 1 -56 6 -5 36 -13 65 -17 43 -6 57 -4&#10;73 11 25 22 24 39 -3 58 -27 19 -119 21 -136 4z"/>
    <path d="M881 552 c-6 -10 -7 -28 -4 -40 7 -27 -20 -40 -42 -22 -12 10 -21 10&#10;-40 2 -51 -23 -20 -76 51 -87 34 -6 45 -3 72 20 55 46 54 145 -2 145 -14 0&#10;-30 -8 -35 -18z"/>
    <path d="M 1829 1338 C 1756 1248 1665 1138 1628 1092 C 1525 966 1533 950 1692 950 L 1800 950 L 1800 621 C 1800 335 1802 289 1816 276 C 1829 263 1858 260 1980 260 C 2062 260 2135 263 2144 266 C 2158 271 2160 311 2160 611 L 2160 949 L 2271 952 C 2372 955 2384 957 2397 976 C 2410 996 2399 1012 2209 1246 C 2066 1423 2001 1496 1985 1498 C 1966 1501 1939 1473 1829 1338 Z M 2134 1218 C 2204 1131 2265 1058 2270 1055 C 2297 1039 2272 1030 2188 1028 L 2095 1025 L 2092 683 L 2090 340 L 1990 340 L 1890 340 L 1890 673 C 1890 919 1887 1009 1878 1018 C 1870 1026 1833 1030 1778 1030 L 1689 1030 L 1786 1148 C 1839 1212 1905 1295 1933 1331 C 1972 1381 1988 1395 1996 1386 C 2002 1380 2064 1304 2134 1218 Z"/>
  </g>
</svg>