<?xml version="1.0" encoding="utf-8"?>
<svg viewBox="0 0 500 500" width="500" height="500" xmlns="http://www.w3.org/2000/svg">
  <path d="M 1942 2894 L 1920 2879 L 1920 2367 L 1920 1855 L 1565 1677 C 1325 1557 1199 1500 1177 1500 C 1160 1500 1102 1493 1050 1485 C 583 1415 204 1051 115 588 C 106 542 96 423 93 319 C 87 138 88 132 109 111 C 130 90 133 90 583 90 C 1124 90 1084 81 1078 206 C 1077 252 1105 251 1130 204 C 1155 157 1184 112 1195 104 C 1211 92 1349 90 2042 90 C 2857 90 2870 90 2890 110 C 2910 130 2910 143 2910 1500 C 2910 2857 2910 2870 2890 2890 C 2871 2909 2857 2910 2417 2910 C 2024 2910 1962 2908 1942 2894 Z M 2810 2067 L 2810 1323 L 2740 1230 C 2702 1179 2670 1133 2670 1128 C 2670 1104 2693 1080 2715 1080 C 2741 1080 2761 1096 2787 1140 C 2805 1171 2827 1181 2816 1154 C 2813 1145 2810 925 2810 664 L 2810 190 L 2027 190 L 1244 190 L 1156 345 C 1107 431 1059 505 1049 511 C 1024 524 992 507 984 475 C 981 462 980 392 981 320 L 985 190 L 586 190 L 188 190 L 193 373 C 199 587 215 660 289 815 C 445 1142 749 1359 1110 1400 C 1189 1409 1234 1405 1735 1339 C 2032 1300 2275 1267 2276 1267 C 2276 1266 2307 1223 2344 1173 C 2396 1102 2417 1080 2435 1080 C 2468 1080 2493 1117 2478 1144 C 2451 1195 2318 1360 2304 1360 C 2295 1360 2101 1385 1871 1415 C 1641 1445 1437 1470 1417 1470 C 1396 1470 1805 1698 1913 1748 C 1926 1754 1921 1700 1905 1670 C 1884 1629 1845 1602 1794 1594 C 1739 1586 1721 1561 1745 1524 C 1788 1457 1955 1539 1997 1648 C 2014 1691 2015 1737 2015 2252 L 2015 2810 L 2413 2810 L 2810 2810 L 2810 2067 Z" transform="matrix(0.10000000149011612, 0, 0, -0.10000000149011612, 105.06926727294922, 372.86199951171875)"/>
</svg>