<?xml version="1.0" encoding="utf-8"?>
<svg viewBox="80 10 300 500" width="500" height="500" xmlns="http://www.w3.org/2000/svg">
  <path d="M 635 2730 C 509 2715 370 2658 272 2581 C 204 2527 17.036 2337.848 117.971 2314.754 C 154.157 2306.475 246 2446 313 2501 C 476 2633 698 2681 891 2624 C 1097 2563 1272 2385 1324 2182 C 1342 2115 1357 1960 1347 1960 C 1343 1960 1313 1980 1279 2005 C 1216 2052 1181 2060 1160 2035 C 1140 2010 1153 1987 1213 1946 C 1379 1833 1562 1557 1621 1334 C 1641 1257 1641 1253 1624 1163 C 1605 1062 1610 1040 1655 1040 C 1685 1040 1696 1056 1704 1113 C 1712 1175 1769 1306 1826 1391 C 1882 1476 1985 1579 2069 1634 C 2105 1658 2208 1717 2298 1766 C 2397 1820 2462 1862 2466 1874 C 2471 1888 2444 1921 2346 2019 C 2218 2147 2201 2174 2208 2234 C 2211 2260 2214 2262 2246 2257 C 2300 2248 2400 2194 2463 2140 C 2495 2112 2527 2090 2534 2090 C 2556 2090 2582 2127 2575 2149 C 2572 2160 2547 2186 2519 2206 C 2492 2227 2471 2249 2473 2255 C 2475 2260 2500 2273 2528 2284 C 2586 2305 2602 2330 2574 2361 C 2565 2371 2550 2380 2541 2380 C 2517 2379 2438 2342 2414 2319 C 2393 2300 2393 2300 2313 2326 L 2233 2352 L 2242 2394 C 2259 2470 2260 2470 2462 2470 C 2649 2470 2687 2463 2722 2424 C 2731 2413 2775 2326 2821 2230 C 2927 2004 2931 1975 2871 1839 C 2794 1664 2637 1404 2479 1189 L 2400 1082 L 2324 1078 C 2253 1075 2246 1072 2219 1042 C 2191 1011 2190 1005 2190 915 L 2190 821 L 1973 600 C 1756 380 1755 379 1712 380 C 1683 380 1645 393 1587 421 C 1451 490 1237 624 1101 727 C 1040 773 908.816 750.123 1058.314 657.874 C 1197.409 572.045 1418 411 1553 341 C 1663 283 1714 276 1787 309 C 1831 330 2027 514 2120 624 C 2150 660 2178 689 2183 689 C 2187 690 2190 662 2190 628 C 2190 583 2196 559 2208 544 C 2248 494 2308 487 2365 526 L 2403 552 L 2539 416 C 2614 342 2688 276 2704 270 C 2724 263 2742 263 2764 270 C 2808 284 2986 467 2993 504 C 3005 572 2946 659 2896 646 C 2858 637 2853 603 2884 571 C 2898 556 2910 537 2910 529 C 2910 513 2751 350 2735 350 C 2729 350 2655 420 2570 505 C 2482 593 2407 660 2397 660 C 2387 660 2360 642 2338 620 C 2273 557 2269 567 2272 794 L 2275 985 L 2473 988 C 2700 991 2708 988 2641 922 C 2618 900 2600 876 2600 868 C 2600 860 2632 821 2671 781 C 2746 706 2780 692 2800 730 C 2813 755 2804 773 2751 824 L 2710 864 L 2730 885 C 2776 934 2775 1002 2728 1047 C 2701 1073 2691 1075 2604 1080 L 2508 1085 L 2560 1153 C 2750 1404 2979 1816 2987 1923 C 2990 1964 2992 2003 2987 2042 C 2981 2099 2829 2429 2786 2478 C 2770 2496 2738 2521 2716 2533 C 2678 2554 2662 2555 2468 2555 C 2275 2555 2260 2554 2234 2534 C 2184 2497 2168 2464 2144 2349 C 2116 2213 2115 2170 2136 2127 C 2145 2109 2197 2050 2252 1994 L 2351 1893 L 2208 1815 C 2129 1772 2038 1719 2005 1697 C 1921 1641 1792 1507 1746 1426 L 1706 1358 L 1685 1422 C 1641 1552 1563 1695 1471 1815 L 1425 1875 L 1428 1995 C 1432 2138 1411 2233 1352 2347 C 1217 2609 926 2764 635 2730 Z" transform="matrix(0.10000000149011612, 0, 0, -0.10000000149011612, 88.58479309082037, 383.72753906250006)"/>
  <path d="M 81.238 2369.881 C 59.238 2360.881 7.238 2205.881 1.238 2131.881 L -4.762 2060.881 L -1.762 1997.881 L -1.762 1948.881 C -1.762 1844.881 58.238 1690.881 137.238 1590.881 C 159.238 1563.881 198.238 1511.881 224.238 1475.881 C 324.238 1337.881 427.238 1215.881 542.238 1096.881 C 714.238 920.881 997.578 684.79 1026.578 684.79 C 1052.578 684.79 1077.483 714.791 1068.483 737.791 C 1065.483 745.791 862.238 912.881 807.238 960.881 C 632.238 1114.881 456.238 1306.881 321.238 1492.881 C 289.238 1536.881 243.238 1596.881 220.238 1625.881 C 163.238 1696.881 112.238 1799.881 92.238 1883.881 C 68.238 1984.881 77.238 2139.881 112.238 2230.881 C 127.238 2269.881 157.863 2349.943 160.863 2362.943 C 169.863 2400.943 121.238 2385.881 81.238 2369.881 Z" transform="matrix(0.10000000149011612, 0, 0, -0.10000000149011612, 88.58479309082037, 383.72753906250006)"/>
  <path d="M1971 2053 c-12 -24 14 -193 31 -204 20 -13 44 -10 59 7 10 12 10 32&#10;1 101 -6 47 -17 91 -23 99 -16 20 -56 17 -68 -3z" transform="matrix(0.10000000149011612, 0, 0, -0.10000000149011612, 88.58479309082037, 383.72753906250006)"/>
  <path d="M1772 1968 c-7 -7 -12 -20 -12 -30 0 -20 92 -148 116 -161 21 -12 54&#10;11 54 37 0 22 -79 141 -104 158 -17 11 -41 9 -54 -4z" transform="matrix(0.10000000149011612, 0, 0, -0.10000000149011612, 88.58479309082037, 383.72753906250006)"/>
  <path d="M1622 1798 c-33 -33 -9 -61 96 -108 83 -38 107 -34 107 16 0 25 -8&#10;32 -75 65 -80 40 -109 46 -128 27z" transform="matrix(0.10000000149011612, 0, 0, -0.10000000149011612, 88.58479309082037, 383.72753906250006)"/>
</svg>