<?xml version="1.0" encoding="utf-8"?>
<svg viewBox="0 0 500 500" width="500" height="500" xmlns="http://www.w3.org/2000/svg">
  <path d="M 612 2798 C 605 2791 600 2777 600 2767 C 600 2730 668 2544 748 2365 C 882 2063 908 1959 897 1772 C 885 1583 858 1501 735 1280 C 669 1163 627 1058 593 926 C 568 831 567 808 563 522 C 558 201 559 190 604 190 C 638 190 650 210 650 263 C 650 309 651 312 673 306 C 685 303 745 293 805 284 C 959 261 1134 273 1288 316 C 1309 322 1310 320 1310 268 C 1310 210 1322 190 1355 190 C 1391 190 1400 210 1400 289 L 1400 365 L 1500 365 L 1600 365 L 1600 289 C 1600 210 1609 190 1645 190 C 1678 190 1690 210 1690 268 C 1690 320 1691 322 1713 316 C 1824 285 1886 277 2030 277 C 2139 277 2207 282 2260 293 C 2301 302 2338 310 2343 310 C 2347 310 2350 288 2350 262 C 2350 209 2362 190 2396 190 C 2441 190 2442 201 2437 522 C 2433 808 2432 831 2407 926 C 2373 1058 2331 1163 2265 1280 C 2177 1438 2151 1496 2131 1578 C 2104 1686 2102 1690 2069 1690 C 2048 1690 2037 1683 2029 1666 C 2012 1630 2051 1495 2117 1360 C 2148 1297 2173 1243 2174 1240 C 2176 1231 1965 1170 1866 1151 C 1725 1123 1522 1108 1418 1116 C 1319 1123 1300 1116 1300 1069 C 1300 1029 1322 1025 1530 1026 C 1659 1027 1736 1032 1825 1048 C 1947 1069 2113 1114 2184 1144 C 2206 1153 2225 1159 2227 1156 C 2229 1154 2246 1115 2265 1069 C 2319 936 2340 813 2347 598 L 2353 412 L 2310 400 C 2181 365 1961 359 1822 385 C 1707 407 1690 415 1690 444 C 1690 488 1667 495 1595 471 C 1559 460 1516 450 1500 450 C 1484 450 1441 460 1405 471 C 1333 495 1310 488 1310 444 C 1310 415 1293 407 1178 385 C 1039 359 819 365 690 400 L 647 412 L 653 598 C 659 806 680 930 731 1059 C 773 1167 769 1164 821 1141 C 890 1110 1099 1058 1125 1064 C 1177 1077 1163 1144 1108 1155 C 1036 1169 820 1235 820 1243 C 820 1248 829 1265 840 1280 C 874 1328 928 1450 957 1545 C 982 1628 984 1648 984 1815 C 985 1987 977 2047 944 2133 C 938 2149 1020 2174 1175 2206 C 1283 2228 1600 2236 1728 2220 C 1815 2209 2046 2157 2057 2146 C 2059 2144 2052 2111 2040 2074 C 1990 1910 2006 1799 2074 1844 C 2091 1855 2098 1875 2108 1943 C 2124 2056 2156 2151 2241 2339 C 2315 2501 2400 2730 2400 2765 C 2400 2792 2382 2810 2354 2810 C 2325 2810 2315 2796 2295 2725 C 2273 2649 2233 2548 2171 2412 C 2144 2353 2115 2288 2107 2268 L 2091 2230 L 2051 2245 C 1965 2275 1779 2310 1643 2321 C 1425 2339 1167 2313 972 2251 L 909 2232 L 889 2278 C 878 2304 842 2384 810 2455 C 777 2527 736 2630 719 2685 C 701 2740 683 2791 677 2798 C 665 2813 628 2814 612 2798 Z" transform="matrix(0.10000000149011612, 0, 0, -0.10000000149011612, 119.46570150846892, 413.638925778522)"/>
  <path d="M 527 1863 C 509 1846 522 1803 557 1768 L 594 1730 L 404 1730 C 205 1730 190 1727 190 1685 C 190 1643 205 1640 404 1640 L 595 1640 L 558 1605 C 506 1558 509 1500 563 1500 C 588 1500 739 1646 747 1678 C 752 1698 739 1715 669 1786 C 607 1848 579 1870 559 1870 C 545 1870 530 1867 527 1863 Z" transform="matrix(0.10000000149011612, 0, 0, -0.10000000149011612, 119.46570150846892, 413.638925778522)"/>
  <path d="M 2331 1786 C 2261 1716 2248 1698 2253 1678 C 2262 1645 2412 1500 2438 1500 C 2450 1500 2466 1510 2474 1522 C 2492 1548 2482 1572 2436 1612 L 2405 1639 L 2596 1640 C 2795 1640 2810 1643 2810 1685 C 2810 1727 2795 1730 2596 1730 L 2406 1730 L 2444 1769 C 2473 1799 2481 1814 2478 1836 C 2476 1860 2470 1865 2445 1868 C 2419 1870 2404 1859 2331 1786 Z" transform="matrix(0.10000000149011612, 0, 0, -0.10000000149011612, 119.46570150846892, 413.638925778522)"/>
  <path d="M1470 1480 c-40 -40 -20 -120 30 -120 34 0 50 23 50 69 0 30 -29 71&#10;-50 71 -5 0 -19 -9 -30 -20z" transform="matrix(0.10000000149011612, 0, 0, -0.10000000149011612, 119.46570150846892, 413.638925778522)"/>
</svg>